<?xml version="1.0" encoding="utf-8"?>
<!-- Generator: Adobe Illustrator 24.0.3, SVG Export Plug-In . SVG Version: 6.00 Build 0)  -->
<svg version="1.1" id="Layer_1" xmlns="http://www.w3.org/2000/svg" xmlns:xlink="http://www.w3.org/1999/xlink" x="0px" y="0px"
	 viewBox="0 300 800 471" overflow="scroll" style="position:absolute;enable-background:new 0 0 800 471;" xml:space="preserve">
<style type="text/css">
	.st0{fill:#87CEEB;stroke:#5F9EA0;stroke-width:2;stroke-linecap:round;stroke-linejoin:round;opacity:.9;}
</style>
<g id="statistical_neighborhoods">
	<path id="Auraria" class="st0" d="M239,210.9l0,0.4l0,0.1l0,0.5l0,0.3l0,0.3l0.1,0.5l0.1,0.5l0,0.4l0.1,0.6l0,0.6l0,0.6l0,0.2
		l0,0.3l0,0.3l0.1,0.3l0.1,0.2l0.1,0.3l0.1,0.2l0.1,0.3l0.1,0.2l0.1,0.1l0.1,0.3l0.1,0.3l0.1,0.3l0.1,0.3l0.1,0.3l0.1,0.4l0.1,0.2
		l0.1,0.2l0.3,0.6l0,0.1l0.1,0.2l0.1,0.2l0.1,0.3l0.1,0.3l0.1,0.2l0.5,0.9l0,0l0,0.1l0.1,0.1l0,0.1l0,0.1l0,0.1l0.1,0.2l0.1,0.1
		l0.1,0.1l0.1,0.1l0.1,0.2l0.1,0.2l0,0.1l0,0.1l0.1,0.1l0.1,0.2l0.1,0.1l0.2,0.2l0.2,0.3l0,0l0.1,0.2l-1,0l-0.4,0l-2.5,0l-0.2,0
		l-0.2,0l-0.1,0l-4,0.1l-0.4,0l-3,0l-2,0l-1.6,0l-0.8,0l-1-0.1l-1.3-0.1l-1.8-0.1l-1.5-0.1l-8.1-0.2l-4.2-0.1l-10.3-0.2l-2.1-0.1
		l-5.7-0.1l0.2-0.4l0.3-0.7l0.4-1.1l1.3-3.5l0.3-0.9l0.1-0.4l0.1-0.2l0.2-0.4l0.2-0.5l0.5-1.2l0.3-0.6l0.3-0.5l0,0l0.1-0.3l0.1-0.5
		l0.1-0.4l0.1-0.8l0.1-1l0.1-1.5l0-0.6l0-0.8l0-0.5l0-0.4l0-0.8l0-0.8l0.1-0.8l0-0.5l0.2-2l0.1-0.8l0.2-1.2l0.2-0.8l0.1-0.3l0.2-0.5
		l0.1-0.2l0.1-0.1l0.2-0.2l0.4-0.3l0.5-0.4l0.3-0.2l0.2-0.2l0.6-0.3l2.2-1.2l0.2-0.1l0.2-0.1l0.2-0.1l0.2-0.1l0.5-0.2l0.4-0.2
		l0.5-0.3l0.7-0.5l0.8-0.7l0.5-0.5l1-0.9l0.2-0.2l0.2-0.2l0.1-0.2l0.3-0.2l0.2-0.2l0.4-0.3l1-0.8l0.5-0.3l0.4-0.3l0.7-0.5l0.3-0.2
		l0.4-0.2l0.3-0.2l0.4-0.4l0.8-0.7l0.3-0.2l0.1-0.1l0.1-0.1l0.2-0.2l0.3-0.4l0.2-0.2l0.2-0.1l0.8-0.6l0.2-0.2l0.1-0.1l0.1,0l0.3,0
		l0.3,0l0.2,0l0.1,0l0.1,0l0,0l0,0.2l0,0.2l0,0.3l0.1,0.4l0.1,0.2l0.2,0.5l0.2,0.4l0.1,0.4l0.1,0.4l0.1,0.2l0.1,0.2l0.1,0.1l0.2,0.2
		l0.4,0.4l0.1,0.1l0.2,0.1l0.3,0.3l0.4,0.3l0.4,0.3l0.4,0.3l0.6,0.4l0.5,0.4l0.2,0.2l0.2,0.1l0.3,0.2l0.5,0.4l0.7,0.5l0.4,0.3
		l0.3,0.2l0.3,0.3l0.5,0.4l1,0.7l0.4,0.3l0.3,0.3l0.5,0.4l0.5,0.4l1.4,1l0.5,0.3l0.5,0.4l0.6,0.5l0.4,0.3l0.2,0.1l0.4,0.3l0.3,0.3
		l0.4,0.3l0.4,0.2l0.4,0.2l0.6,0.4l0.3,0.2l0.4,0.3l0.3,0.2l0.4,0.3l0.2,0.2l0.5,0.5l0.2,0.2l0.2,0.2l0.3,0.5l0.3,0.4l0.2,0.3
		l0.3,0.6l0.1,0.1l0.2,0.3l0.1,0.2l0.1,0.3l0,0l0.2,0.4l0.1,0.3l0.1,0.2l0.1,0.1l0.1,0.2l0.1,0.2l0.1,0.1l0.1,0.2l0.2,0.5l0.1,0.2
		l0.1,0.2l0,0.2l0,0.1l0,0.1l-0.1,1.3l0,0.3L239,210.9z"/>
	<path id="Cory_-_Merrill" class="st0" d="M404.9,351.8L404.9,351.8l0,5.1l-0.1,5l0.1,5l-0.1,5.1l-0.1,5l0,2.2l0.1,1.3l0,2.8l0,0.8
		l0,0.2l0,0.2l-0.8-0.2l-0.7-0.2l-1.9-0.5l-3.1-0.8l-2-0.5l-3.1-0.8l-3.5-0.8l-1.9-0.3l-2.7-0.4l-2.1-0.2l-2.7-0.2l-1.3-0.1l-0.7,0
		l-0.8,0l-1.7,0l-7,0l-4.8,0l-8.5,0l-2.5,0l0-0.4l0-0.4l0-0.3l0-3.4l0.1-3.2l0.1-5l0-5.1l0-5l0-5l0-5l3.4,0l3.2,0l3.2,0l3.2,0l3.2,0
		l3.2,0l3.2,0l3.3,0l3.3,0l3.2,0l3.2,0l3.2,0l3.3,0l3.2,0l3.2,0l1.6,0l1.7,0l0,3.2l0,1.8L404.9,351.8z"/>
	<path id="Belcaro" class="st0" d="M404.7,305.2l0.1,1.4l0,20.2l0,16.9l1.9,0l0-0.5l4.1,0l0,3.5l-2.7,0l0,0.2l-2.9,0l-0.2,0l-1.7,0
		l-1.6,0l-3.2,0l-3.2,0l-3.3,0l-3.2,0l-3.2,0l-3.2,0l-3.3,0l-3.3,0l-3.2,0l-3.2,0l-3.2,0l-3.2,0l-3.2,0l-3.2,0l-3.4,0l0-5l0-5.1l0-5
		l-0.1-5.1l0.1-5l0-4.6l0-0.5l0-5l0.1-4.5l0.1-0.5l-0.1-0.2l0-1.5l0-3.5l0-2.8l0-0.5l0-0.9l0-2.2l0-1l0.9-0.1l0.2,0l0.3,0l0.4-0.1
		l0.5-0.1l0.4,0l0.7,0l0.6-0.1l0.3,0l0.4,0l0.3,0l0.4,0l0.6,0l0.4,0l0.8,0l0.3,0l0.2,0l0.4,0.1l0.3,0.1l0.2,0l0.5,0.1l0.3,0l0.2,0
		l0.3,0l0.2,0l0.4,0l0.3,0l0.2,0l0.3,0l0.2,0.1l0.5,0.1l0.4,0.1l0.4,0.1l0.2,0l0.3,0.1l0.3,0.1l0.4,0.1l0.3,0.1l0.4,0l0.2,0l0.2,0
		l0.3,0l0.2,0l0.2,0.1l0.2,0.1l0.4,0.2l0.4,0.2l0.4,0.2l0.4,0.2l0.4,0.2l0.3,0.1l0.3,0.2l0.1,0.1l0.2,0.1l0.3,0.1l0.2,0.1l0.6,0.2
		l0.3,0.1l0.2,0.1l0.3,0.1l0.2,0l0.4,0.1l0.1,0l0.2,0.1l0.2,0.1l0.1,0.1l0.2,0.2l0.4,0.4l0.3,0.3l0.2,0.2l0.3,0.3l0.2,0.2l0.1,0.2
		l0.3,0.2l0.2,0.1l0.2,0.1l0.1,0l0.3,0.2l0.2,0.1l0.1,0.1l0.2,0.1l0.3,0.1l0.2,0.1l0.2,0.1l0.1,0.2l0,0.2l0,0.1l0,0l0.2,0l0.2,0
		l0.3,0.2l0.4,0.3l0.2,0.1l0.3,0.2l0.2,0.1l0.2,0.1l0.2,0.2l0.1,0.2l0.2,0.3l0,0.1l0.1,0.2l0.1,0.2l0.1,0.1l0.1,0.1l0.3,0.3l0.1,0.1
		l0.1,0.1l0.2,0.1l0.2,0.1l0.1,0.1l0.1,0.2l0.1,0.2l0.1,0.1l0.3,0.1l0.3,0l0.1,0.1l0.2,0.1l0.2,0.1l0.2,0.1l0.2,0.2l4.7,0l1.7,0
		l1.7,0l1.6,0l1.7,0l1.7,0l1.7,0l1,0.1l2.3,0.1l1.2-0.1L404.7,305.2z"/>
	<path id="Washington_Park" class="st0" d="M353.1,293.8l0,1l0,2.2l0,0.9l0,0.5l0,2.8l0,3.5l0,1.5l0.1,0.2l-0.1,0.5l-0.1,4.5l0,5
		l0,0.5l0,4.6l-0.1,5l0.1,5.1l0,5l0,5.1l0,5l0,5l0,5l0,5l0,5.1l-0.1,5l-0.1,3.2l0,3.4l0,0.3l0,0.4l0,0.4l-1.7,0l-3.1,0l-1.6-0.1
		l-1.1-0.1l-1.3-0.2l-1.5-0.3l-1.5-0.4l-1.5-0.5l-1.1-0.5l-1.8-0.9l-8-4l-1.2-0.6l-0.6-0.3l-3-1.5l-9.4-4.6l-0.4-0.2l0-0.5l0-1.3
		l0-0.8l0-1.1l0-5.1l0-4.9l0.1-5.2l0-4.9l-0.1-0.2l0-4.9l0-5.1l0-5l0-5l0-5l0-5l0-5l0-1.2l0-3.8l0-5l0.7,0l0-5l0-4.1l-0.2-0.5l0-0.6
		l0.3,0.1l0.3,0.1l0.2,0l0.2,0.1l0.3,0.1l0.2,0l1.7,0.4l0.7,0.2l0.2,0l0.3,0.1l0.4,0.1l0.4,0.1l0.2,0.1l0.3,0.1l0.3,0.1l0.4,0.1
		l0.2,0.1l0.3,0.1l0.1,0.1l0.2,0l0.3,0.1l0.3,0.1l0.4,0.1l0.2,0.1l0.3,0.1l0.1,0.1l0.2,0.1l0.2,0.1l0.2,0.1l0.2,0.2l0.2,0.2l0.3,0.3
		l0.3,0.3l0.3,0.3l0.2,0.2l0.2,0.2l0.2,0.2l0.2,0.2l0.2,0.1l0.2,0.1l0.2,0.2l0.2,0.2l0.1,0.1l0.2,0.2l0.1,0.1l0.3,0.3l0.4,0.4
		l0.1,0.1l0.2,0.2l0.2,0.2l0.2,0.2l0.2,0.2l0.2,0.2l0.2,0.2l0.2,0.2l0.2,0.1l0.4,0.3l0.5,0.4l0.5,0.3l0.3,0.2l0.4,0.3l0.4,0.3
		l0.4,0.2l0.3,0.1l0.3,0.2l0.4,0.2l0.3,0.2l0.2,0.2l0.2,0.1l0.2,0.1l0.3,0.1l0.3,0.1l0.3,0.1l0.2,0.1l0.1,0l0.2,0l0.2,0l0.1,0l0.1,0
		l0.1,0l0.1,0l0.2,0l0.2,0.1l0.2,0.1l0.2,0l0.2,0l0.2,0l0.3-0.1l0.3-0.1l0.2,0l0.3-0.1l0.2-0.1l0.2-0.1l0.2-0.1l0.4-0.2l0.3-0.2
		l0.2-0.2l0.2-0.1l0.1-0.1l0.1,0l0.2,0l0.1,0l0.1,0l0.2-0.1l0.1-0.1l0.2-0.1l0.3-0.1l0.3-0.1l0.2-0.1l0.2-0.1l0.3-0.3l0.2-0.2
		l0.2-0.1l0.1-0.1l0.2-0.1l0.3-0.1l0.3-0.1l0.4-0.1l0.5-0.1l0.5-0.1l0.4-0.1l0.2-0.1l0.2-0.1l0.3-0.1l0.4-0.1l0.5-0.1l0.4-0.1l0.3,0
		l0.3,0l0.3,0l0.3,0l0.3,0l0.3,0l0.3,0l0.3,0l0.4,0l0.4,0l0.4,0l0.2,0l0.1,0l0.1,0l0.2,0l0.2,0l0.3,0l0.2,0l0.1,0l0.3,0l0.3,0l0.2,0
		L353.1,293.8L353.1,293.8z"/>
	<path id="Washington_Park_West" class="st0" d="M313.9,365.5l-0.4-0.2l-0.1-0.1l-3.2-1.6L309,363l-1.7-1.1l-1-0.8l-1.8-1.5
		l-3.7-3.4l-2.7-2.4l0,0l-0.9-0.8L296,352l-1.1-0.9l-2.2-1.7l-0.3-0.3L290,347l-0.5-0.5l-1.5,0l-3.3,0.1l-3.1,0l-3.2,0l-3.4,0
		l-0.1-9.9l0-0.4l0-1.9l0-0.5l-0.1-0.2l-0.1-0.4l0-0.3l0-0.5l0-0.5l0-0.2l0.1-0.4l0.1-1.4l0-2l0-1.5l-0.2-5.1l-0.2-5l0.1-2.6l0-2.4
		l0-2.5l0-2.6l1.7,0l1.7,0l1.6,0l1.6,0l1.6,0l1.7,0l1.6,0l1.8,0l1.8,0h0l0.1,0l1.6,0l1.6,0l1.6,0l1.6,0l1.6,0l1.6,0l1.6,0l1.6,0
		l1.6,0l1.6,0l1.6,0l1.6,0l1.6,0l1.6,0l1.6,0l0,5l0,5l0,5l0,5l0,5l0,5.1l0,4.9l0.1,0.2l0,4.9l-0.1,5.2l0,4.9l0,5.1l0,1.1l0,0.8
		l0,1.3L313.9,365.5z"/>
	<path id="Speer" class="st0" d="M314.4,286.2l0,0.6l0.2,0.5l0,4.1l0,5l-0.7,0l0,5l0,3.8l0,1.2l-1.6,0l-1.6,0l-1.6,0l-1.6,0l-1.6,0
		l-1.6,0l-1.6,0l-1.6,0l-1.6,0l-1.6,0l-1.6,0l-1.6,0l-1.6,0l-1.6,0l-1.6,0l-0.1,0h0l-1.8,0l-1.8,0l-1.6,0l-1.7,0l-1.6,0l-1.6,0
		l-1.6,0l-1.7,0l-1.7,0l0.1-2.6l0-2.4l0-2.5l0-2.5l0-2.5l0-1.3l0-1.2l0-2.5l0-2.5l0-2.8l0.1-4.4l-0.1-4.4l0-4.4l0.1-2.1l0.1-2.1
		l0-2.7l0-0.1l0-0.8l0-0.9l3.5,0l3.5,0l3.5,0l1.8,0l1.7,0l1.7,0l1.7,0l3.3,0l1.6,0l1.6,0l3.4,0l3.2,0l3.2,0l3.2,0l1.6,0l1.6,0
		l0.1,4.7l0,5.1l0,5l0,4.8l-0.1,0.3l-0.2,0.4l-0.3,0.4l-0.2,0.4l-0.2,0.6l0,0.2l0,1.7l-0.1,0.2L314.4,286.2z"/>
	<path id="Cherry_Creek" class="st0" d="M404.7,305.2l-0.6,0.3l-1.2,0.1l-2.3-0.1l-1-0.1l-1.7,0l-1.7,0l-1.7,0l-1.6,0l-1.7,0l-1.7,0
		l-4.7,0l-0.2-0.2l-0.2-0.1l-0.2-0.1l-0.2-0.1l-0.1-0.1l-0.3,0l-0.3-0.1l-0.1-0.1l-0.1-0.2l-0.1-0.2l-0.1-0.1l-0.2-0.1l-0.2-0.1
		l-0.1-0.1l-0.1-0.1l-0.3-0.3l-0.1-0.1l-0.1-0.1l-0.1-0.2l-0.1-0.2l0-0.1l-0.2-0.3L381,302l-0.2-0.2l-0.2-0.1l-0.2-0.1l-0.3-0.2
		l-0.2-0.1l-0.4-0.3l-0.3-0.2l-0.2,0l-0.2,0l0,0l0-0.1l0-0.2l-0.1-0.2l-0.2-0.1l-0.2-0.1l-0.3-0.1l-0.2-0.1l-0.1-0.1l-0.2-0.1
		l-0.3-0.2l-0.1,0l-0.2-0.1l-0.2-0.1l-0.3-0.2l-0.1-0.2l-0.2-0.2l-0.3-0.3l-0.2-0.2l-0.3-0.3l-0.4-0.4l-0.2-0.2l-0.1-0.1l-0.2-0.1
		l-0.2-0.1l-0.1,0l-0.4-0.1l-0.2,0l-0.3-0.1l-0.2-0.1l-0.3-0.1l-0.6-0.2l-0.2-0.1l-0.3-0.1l-0.2-0.1l-0.1-0.1l-0.3-0.2l-0.3-0.1
		l-0.4-0.2l-0.4-0.2l-0.4-0.2l-0.4-0.2l-0.4-0.2l-0.2-0.1l-0.2-0.1l-0.2,0l-0.3,0l-0.2,0l-0.2,0l-0.4,0l-0.3-0.1l-0.4-0.1l-0.3-0.1
		l-0.3-0.1l-0.2,0l-0.4-0.1l-0.4-0.1l-0.5-0.1l-0.2-0.1l-0.3,0l-0.2,0l-0.3,0l-0.4,0l-0.2,0l-0.3,0l-0.2,0l-0.3,0l-0.5-0.1l-0.2,0
		l-0.3-0.1l-0.4-0.1l-0.2,0l-0.3,0l-0.8,0l-0.4,0l-0.6,0l-0.4,0l-0.3,0l-0.4,0l-0.3,0l-0.6,0.1l-0.7,0l-0.4,0l-0.5,0.1l-0.4,0.1
		l-0.3,0l-0.2,0l-0.9,0.1l0-1.2l0-5.9l0-0.4l0-0.3l-0.4-2.7l0-4.3l0-4.4l0-4.4l0-2.3l-0.9-0.6l-0.4-0.3l-0.3-0.3l-0.2-0.2l-0.1-0.2
		l-0.1-0.3l1.6,0l0.4,0l1.6,0l1.8,0l1,0l0.6,0h1l0.6,0l1,0l0.7,0l0.9,0l0.8,0l0.8,0l0.9,0l0.7,0l0.9,0l0.7,0l1,0l0.6,0l1.1,0l1.7,0
		l0.5,0l1.2,0l1.7,0l0.3,0l1.4,0l1.7,0l0.2,0l0.9,0h0.6l0.8,0l0.9,0l0.7,0h1l0.5,0l2.8,0l1.7,0l0.1,0h1.6l1.4,0l1.5,0l1.5,0l1.5,0
		l1.5,0l0.8,0l0.7,0l1,0l0.4,0l1.2,0l0.3,0l1.4,0l1.8,0l0,0.8l0,2.6l0,0.6l0,2.7l0,1.7l0,4.4l0,4.3l0,2.9l0,1.5l0,0.9l0,3.4l0,3.2
		l0,1.2l0,4.4L404.7,305.2z"/>
	<path id="Country_Club" class="st0" d="M350.7,266.2l0.1,0.3l0.1,0.2l0.2,0.2l0.3,0.3l0.4,0.3l0.9,0.6l0,2.3l0,4.4l0,4.4l0,4.3
		l0.4,2.7l0,0.3l0,0.4l0,5.9l0,1.2l-0.1,0l-0.2,0l-0.2,0l-0.3,0l-0.3,0l-0.1,0l-0.2,0l-0.3,0l-0.2,0l-0.2,0l-0.1,0l-0.1,0l-0.2,0
		l-0.4,0l-0.4,0l-0.4,0l-0.3,0l-0.3,0l-0.3,0l-0.3,0l-0.3,0l-0.3,0l-0.3,0l-0.3,0l-0.4,0.1l-0.5,0.1l-0.4,0.1l-0.3,0.1l-0.2,0.1
		l-0.2,0.1l-0.4,0.1l-0.5,0.1l-0.5,0.1l-0.4,0.1l-0.3,0.1l-0.3,0.1l-0.2,0.1l-0.1,0.1l-0.2,0.1l-0.2,0.2l-0.3,0.3l-0.2,0.1l-0.2,0.1
		l-0.3,0.1l-0.3,0.1l-0.2,0.1l-0.1,0.1l-0.2,0.1l-0.1,0l-0.1,0l-0.2,0l-0.1,0l-0.1,0.1l-0.2,0.1l-0.2,0.2l-0.3,0.2l-0.4,0.2
		l-0.2,0.1l-0.2,0.1l-0.2,0.1l-0.3,0.1l-0.2,0l-0.3,0.1L337,298l-0.2,0l-0.2,0l-0.2,0l-0.2-0.1l-0.2-0.1l-0.2,0l-0.1,0l-0.1,0
		l-0.1,0l-0.1,0l-0.2,0l-0.2,0l-0.1,0l-0.2-0.1l-0.3-0.1l-0.3-0.1l-0.3-0.1l-0.2-0.1l-0.2-0.1l-0.2-0.2l-0.3-0.2l-0.4-0.2l-0.3-0.2
		l-0.3-0.1l-0.4-0.2l-0.4-0.3l-0.4-0.3l-0.3-0.2l-0.5-0.3l-0.5-0.4l-0.4-0.3l-0.2-0.1l-0.2-0.2l-0.2-0.2l-0.2-0.2l-0.2-0.2l-0.2-0.2
		l-0.2-0.2l-0.2-0.2l-0.1-0.1l-0.4-0.4L327,292l-0.1-0.1l-0.2-0.2l-0.1-0.1l-0.2-0.2l-0.2-0.2l-0.2-0.1l-0.2-0.1l-0.2-0.2l-0.2-0.2
		l-0.2-0.2l-0.2-0.2l-0.3-0.3l-0.3-0.3l-0.3-0.3l-0.2-0.2l-0.2-0.2l-0.2-0.1l-0.2-0.1l-0.2-0.1l-0.1-0.1l-0.3-0.1l-0.2-0.1l-0.4-0.1
		l-0.3-0.1l-0.3-0.1l-0.2,0l-0.1-0.1l-0.3-0.1l-0.2-0.1l-0.4-0.1l-0.3-0.1l-0.3-0.1l-0.2-0.1l-0.4-0.1l-0.4-0.1l-0.3-0.1l-0.2,0
		l-0.7-0.2l-1.7-0.4l-0.2,0l-0.3-0.1l-0.2-0.1l-0.2,0l-0.3-0.1l-0.3-0.1l-0.1-0.8l0.1-0.2l0-1.7l0-0.2l0.2-0.6l0.2-0.4l0.3-0.4
		l0.2-0.4l0.1-0.3l0-4.8l0-5l0-5.1l-0.1-4.7l0-5l3.2,0l3.2,0l3.2,0l1.6,0l1.6,0l1.6,0l1.6,0l1.6,0l1.9,0l2.9,0l1.6,0l1.6,0l1.6,0
		l1.6,0l1.6,0l1.6,0l1.6,0l1.6,0l0,5l0.1,0.6L350.7,266.2z"/>
	<path id="Congress_Park" class="st0" d="M404.8,225.9l0,5.1l0,4.4l0,4.5l0,1.1l0,2.9l0,2.2l0,2.2l0,2.9l0,1.5l0,3.5l0,5.3l0,1.2
		l0,3.6l-1.8,0l-1.4,0l-0.3,0l-1.2,0l-0.4,0l-1,0l-0.7,0l-0.8,0l-1.5,0l-1.5,0l-1.5,0l-1.5,0l-1.4,0h-1.6l-0.1,0l-1.7,0l-2.8,0
		l-0.5,0h-1l-0.7,0l-0.9,0l-0.8,0h-0.6l-0.9,0l-0.2,0l-1.7,0l-1.4,0l-0.3,0l-1.7,0l-1.2,0l-0.5,0l-1.7,0l-1.1,0l-0.6,0l-1,0l-0.7,0
		l-0.9,0l-0.7,0l-0.9,0l-0.8,0l-0.8,0l-0.9,0l-0.7,0l-1,0l-0.6,0h-1l-0.6,0l-1,0l-1.8,0l-1.6,0l-0.4,0l-1.6,0l0-4.2l-0.1-0.6l0-5
		l0.1-3.8l0.2-0.5l0.5-0.7l0.2-0.4l0-1.1l0-1.3l0.1-0.9l0-3.3l0-4.4l0-4.9l0-4.4l0-3.7l0-0.7l0.9-0.1l0.5-0.1l0.4-0.1l0.9-0.2l1-0.1
		l0.9-0.1l0.3,0l0.3,0l1.3,0l1.6,0l1.6,0l1.6,0l1.4,0l1.2,0l1.5,0l0.1,0l1.6,0l0.1,0l1.6,0l1.6,0l1.6,0l1.6,0l1.5,0l0.1,0l1.6,0
		l1.6,0l0.1,0l1.4,0l0.2,0l1.3,0l0.3,0l1.2,0l0.4,0l1.1,0l2,0l1,0l0.6,0l0.9,0l0.7,0l1.6,0l0.8,0l1,0l3.1,0l3.3,0l1.5,0L404.8,225.9
		z"/>
	<path id="City_Park" class="st0" d="M405,195.6l0,5l0,5.1l0,3.5l0,3.2l0,3.3l0,1l0,2.3l0,1.7l0,0.5l0,1l0,3.5l-1.8,0l-1.5,0l-3.3,0
		l-3.1,0l-1,0l-0.8,0l-1.6,0l-0.7,0l-0.9,0l-0.6,0l-1,0l-2,0l-1.1,0l-0.4,0l-1.2,0l-0.3,0l-1.3,0l-0.2,0l-1.4,0l-0.1,0l-1.6,0
		l-1.6,0l-0.1,0l-1.5,0l-1.6,0l-1.6,0l-1.6,0l-1.6,0l-0.1,0l-1.6,0l-0.1,0l-1.5,0l-1.2,0l-1.4,0l-1.6,0l-1.6,0l-1.6,0l-1.3,0l-0.3,0
		l-0.3,0l-0.9,0.1l-1,0.1l-0.9,0.2l-0.4,0.1l-0.5,0.1l-0.9,0.1l0-4.5l0-4.6l0-4.2l0-6l0-3.5l0-3.5l0-3.5l1.5,0l1.2-0.1l1.1-0.1
		l1.4-0.2l1.7-0.2l1.7-0.2l3.8-0.4l1-0.1l1.2,0l12.9,0l2.2,0l9.2,0l6.9,0l2.3,0L405,195.6z"/>
	<path id="Washington_Virginia_Vale" class="st0" d="M508,305.9l0,0.4l0,0.8l0,3.3l0,3l0,0.1l0,1.3l0,1.6l0,10.1l-0.1,9.9l0,0.5
		l0,1.2l0,3.3l0.1,0l0,5.3l9.4,10.2l-9.5-0.1l0,10.1l-0.1,5.5l0.1,5.3l-0.2-0.1l-0.2,0l-0.2-0.1l-0.1-0.1l-0.1-0.1l-0.1-0.1
		l-0.1-0.1l-0.1,0l-0.1,0l-0.2-0.1l-0.1,0l-0.1-0.1l-0.1-0.1l-0.1-0.1l-0.1-0.1l-0.1,0l-0.1,0l-0.2,0l-0.2-0.1l-0.1,0l-0.2-0.1
		l-0.3-0.2l-0.1-0.1l-0.2-0.2l-0.1-0.1l-0.1-0.1l-0.1-0.1l-0.2-0.1l-0.1-0.1l-0.1-0.2l-0.1-0.2l0-0.1l-0.1-0.1l-0.1-0.1l-0.3-0.1
		l-0.2,0l-0.2,0l0,0l-0.3-0.1l-0.2-0.1l-0.2-0.1l-0.3-0.2l-0.2-0.1l-0.3-0.1l-0.2-0.1l-0.2-0.1l-0.2-0.1l-0.2-0.2l-0.2-0.1l-0.2-0.1
		l-0.2,0l-0.4-0.1l-0.2-0.1l-0.1-0.1l-0.1-0.1l-0.1-0.2l-0.1-0.1l-0.1-0.2l-0.1-0.1l-0.1-0.1l-0.1-0.1l-0.1-0.1l-0.3-0.1l-0.2,0
		l-0.2,0l-0.2,0l-0.4,0l-0.2,0l-0.1,0l-0.2-0.1l-0.2-0.1l-0.3-0.1l-0.3-0.1l-0.2-0.1l-0.3-0.2l-0.1-0.1l-0.2-0.1l-0.2-0.1l-0.1-0.1
		l-0.1-0.1l-0.2-0.1l-0.2-0.1l-0.1-0.1l-0.2-0.1l-0.1,0l-0.2-0.1l-0.1-0.1l-0.1-0.1l-0.1-0.1l-0.1-0.2l-0.2-0.2l-0.2-0.1l-0.3-0.1
		l-0.3,0l-0.2,0l-0.1,0l-0.2-0.1l-0.1-0.2l-0.1-0.2l0-0.2l0-0.2l0-0.1l-0.1-0.2l-0.1-0.1l-0.1-0.1l-0.1-0.1l-0.1-0.1l-0.2-0.1l0,0
		l-0.2,0l0,0l-0.1,0l-0.1,0l-0.1,0l-0.1,0l-0.1-0.1l-0.1-0.1l-0.2-0.1l-0.3-0.2l-0.2-0.1l-0.2-0.1l-0.2-0.1l-0.2-0.1l-0.2-0.1
		l-0.2-0.1l-0.3-0.1l-0.2-0.1l-0.2-0.1l-0.3-0.1l-0.1,0l-0.1,0l-0.3-0.1l-0.1-0.1l-0.1-0.1l-0.1-0.2l-0.1-0.2l-0.1-0.1l-0.1-0.1
		l-0.2-0.1l-0.2-0.1l-0.2-0.1l-0.3-0.1l-0.4-0.1l-0.2-0.1l-0.3-0.1l-0.2-0.1l-0.2-0.1l-0.2-0.1l-0.2-0.1l-0.2-0.1l-0.3-0.1l-0.2-0.1
		l-0.2,0l-0.1,0l-0.5-0.2l-0.4-0.2l-0.3-0.2l-0.2-0.1l-0.2-0.1l-0.1-0.1l-0.3-0.1l-0.2-0.1l-0.1,0l-0.3-0.2l-0.1-0.1l-0.2-0.2
		l-0.2-0.2l-0.1-0.1l0-0.1l-0.1-0.1l-0.2-0.2l-0.1-0.1l-0.3-0.2l-0.2-0.1l-0.3-0.1l-0.2-0.1l-0.2-0.1l-0.3-0.1l-0.2-0.1l-0.3-0.2
		l-0.2-0.1l-0.3-0.1l-0.3-0.1l-0.2,0l-0.3,0l-0.4,0l-0.2,0l-0.2-0.1l-0.2-0.1l-0.2-0.1l-0.2-0.2L474,358l-0.1-0.1l-0.1-0.1l-0.2-0.1
		l-0.1-0.1l-0.1-0.1l-0.2-0.1l-0.2-0.1l-0.3-0.1l-0.1-0.1l-0.1-0.1l-0.1-0.2l-0.1-0.1l-0.2-0.2l-0.2-0.1l-0.3-0.1l-0.3-0.1l-0.2-0.1
		l-0.1-0.1l-0.2-0.1l-0.1-0.1l-0.2-0.1l-0.1-0.1l-0.1-0.1l-0.2-0.2l-0.3-0.3l-0.1-0.2l-0.1-0.2l-0.1-0.2l-0.1-0.1l-0.1-0.1l-0.1-0.1
		l-0.2,0l-0.2,0l-0.4-0.1l-0.3-0.1l-0.3-0.1l-0.1-0.1l-0.1-0.1l-0.2-0.1l-0.3-0.2l-0.1-0.1l-0.2-0.2l-0.6-0.6l-0.1-0.1l-0.2-0.2
		l-0.2-0.1l-0.1-0.1l-0.3-0.1l-0.3-0.1l-0.4-0.2l-0.3-0.1l-0.3-0.2l-0.2-0.2l-0.3-0.2l-0.3-0.2l-0.3-0.2l-0.3-0.1l-0.3-0.1l-0.3-0.1
		l-0.3-0.1l-0.4-0.1l-0.6-0.2l-0.2-0.1l-0.2-0.1l-0.3-0.2l-0.1-0.2l-0.2-0.2l-0.1-0.1l-0.2-0.1l-0.3-0.3l-0.3-0.3l-0.1-0.1l-0.2-0.1
		l-0.3-0.2l-0.2-0.1l-0.2,0l-0.3,0l-0.2-0.1l-0.2-0.1l-0.1-0.1l-0.7-0.1l-0.2-0.1l0,0l-0.3-0.1l-0.1-0.1l-0.1-0.2l-0.2-0.1l-0.1-0.1
		l-0.1-0.1l-0.1-0.1l-0.1-0.1l-0.1,0l-0.1,0l-0.4-0.1l-0.3,0l-0.2-0.1l-0.3-0.1l-0.1-0.1l-0.1-0.1l0,0l-1.2,0.1l-0.3,0.1l-0.3,0
		l-0.2,0l-0.3,0l-0.5,0l-2.7,0l-1.8,0l-1.6,0l-2.1,0l-0.3,0l-0.3,0l-0.2,0l-0.3,0.1l-0.4,0.1l-0.2,0l-0.3,0l-0.4,0l-0.1,0l-0.1,0
		l0-5l-1.6,0l0-5l-1.5,0l-6.7,0l0-0.3l-3.2,0l0-2.8l-3.2,0l0-2l0-4.8l2.1,0l1.2,0.4l-0.1,4.3l3.2,0l0-3.2v0l0-1.8l4.3,0l8.8,0l0-7.9
		l-3.6,0l0-0.3l-2.3,0l0,1l-1.2,0l0-5.8l7.1,1.3l0-0.2l-7.1-1.3l-1.9-0.4l-1.6-0.4l-0.4-0.1l-2-0.6l0-5.5l0.3-0.3l6.2,0.1l3.3,0
		l3.2,0l3.3,0l3.3,0l3.2-0.1l3.2,0l3.2,0l3.2,0l3.2,0l3.2,0l3.2,0l3.3,0l3.2-0.1l3.4,0l0.4,0l2.7,0l1.9,0l2.5,0l1.5,0l2.8,0l6.1,0
		l5.6,0l2.2-0.1L508,305.9z M436.4,331.6l0,2.1l2.8,0l-1-0.9l-1.1-0.9l-0.4-0.3L436.4,331.6z M426.4,341.6l-3.3,0.1l0-2.6l0-2.3
		l3.3,0l3.2,0l0,3.7l0,1.1l-1.6,0L426.4,341.6z"/>
	<path id="Barnum" class="st0" d="M170.3,266.3l0,0.2l0,1.3l0,1.4l0,2.9l0,1.5l0,0.1l0,2.3l0,2l0,0.5l0,2.5l0,1.4l0,1.1l0,2.5l0,0.8
		l0,1.7l0.1,2.5l0,2.5l0,2.1l0,0.4l0,4v1.1l0,5.1l-3.4,0l-1.7,0l-1.7,0l-1.7,0l-1.7,0l-1.7,0l-1.5,0l-1.9,0l-1.7,0l-1.7,0l-1.7,0
		l-3.4,0l-1.7,0l-1.7,0l-1.7,0l-1.6,0l-1.8,0l-1.6,0l-3.3,0l-3.4,0l0-1.5l0-4.4l0-4.4l0.1-4.4l-0.1-4.4l0-4.4l0-4.4l0-4.5l0.7,0
		l0-4.4v-2.6l0-0.4l0-0.2l0.9,0h0l5.8,0l6.4,0.1l2.5,0l1.2,0l1.2,0.1l0.3,0l0.4,0l1.3,0.1l0.3,0l1.2,0.1l2.2,0l5.5,0l0.2,0l5.6,0
		l4,0L170.3,266.3z"/>
	<path id="Barnum_West" class="st0" d="M130.6,265.9l0,0.2l0,0.4v2.6l0,4.4l-0.7,0l0,4.5l0,4.4l0,4.4l0.1,4.4l-0.1,4.4l0,4.4l0,4.4
		l0,1.5l-3.3,0l-3.3,0l-3.3,0l-4.9,0l-3,0l-2.6,0l-4.1,0l-4.2-0.1l-2.3,0l-0.5,0l-2.8,0l-3.3,0l0,0v0l0-20.1l0.1-20l5.1,0l7,0l0.4,0
		l1.6,0.1l1.1,0.1l0.9,0.1l0.7,0l11,0l9.4,0L130.6,265.9z"/>
	<path id="West_Colfax" class="st0" d="M170.1,208.5l0,3.3l0,3.3l0,3.4l0,0.9l0,4.8l0,0.7l0,1l0,0.7l0.2,5l-0.1,3.9l-0.3,0.1l-0.1,0
		l-0.3,0.2l-0.3,0.2l-0.1,0.1l-0.2,0.1l-0.8,0.4l-0.1,0.1l-0.1,0l-0.1,0.1l-0.1,0l-0.1,0l-0.2,0l0,0l-0.2,0l-0.2,0l-0.2,0.1
		l-0.7,0.2l-0.8,0.2l-0.3,0l-0.2,0l-0.1,0l-0.2,0l-0.1,0l-0.1,0l-0.2,0l-0.1,0l-0.2,0l-0.3,0l-0.5,0.1l-0.1,0l-0.2,0l-0.2,0l-0.2,0
		l-0.3,0.1l0,0h0l-0.2,0l-0.1,0l-0.1,0l-0.1,0l-0.8,0.3l-0.3,0.1l-0.1,0l-0.1,0l-0.5,0.1l0,0l-0.1,0l-0.6,0.1l-0.2,0l-0.5,0.1
		l-0.1,0l-0.2,0l0,0l-0.2,0l-0.2,0l-0.2,0l-0.3,0l-1,0.1l-0.2,0l-0.2,0l0,0l-1,0.2l-0.2,0l-0.1,0l0,0l-0.1,0l-0.1,0l-0.1,0l-0.1,0
		l-0.1,0l-0.1,0l-0.1,0.1l0,0l-0.2,0.1l0,0l-0.4,0.3l0,0l0,0l-0.1,0l-0.1,0.1l-0.1,0.1l-0.1,0.1l-0.2,0.1l-0.2,0.1l-0.2,0.1l-0.1,0
		l-0.1,0l-0.2,0l-0.2,0l-0.8,0l0,0l-0.1,0l-0.1,0l-0.1,0l-0.1,0l-0.1,0l-0.3-0.2l-0.8-0.4l-0.1-0.1l-0.1-0.1l-0.1,0l-0.1,0l0,0
		l-0.1,0l-0.2,0l-0.1,0l-0.1,0l-0.4,0l-0.3,0l-0.3,0l-0.2,0l-0.1,0l-0.1,0l-0.3-0.1l-0.3-0.1l-0.2-0.1l-0.3-0.1l-0.2,0l-0.3,0
		l-0.3,0l-0.3,0l-0.2,0l-0.2,0l-0.3,0.1l-0.2,0.1l-0.3,0.1l-0.3,0.1l-0.3,0.1l-0.3,0.2l-0.3,0.2l-0.2,0.1l-0.2,0.1l-0.2,0.1
		l-0.2,0.1l-0.2,0.1l-0.1,0l-0.1,0l-0.1,0l-0.1,0.1l-0.2,0.2l-0.1,0.1l-0.1,0.1l-0.2,0l-0.2,0l-0.1,0l-0.1,0l-0.1,0l-0.1,0l-0.1,0
		l-0.1,0.1l-0.1,0.1l-0.1,0.1l0,0.1l0,0.1l-0.1,0.1l-0.1,0.1l-0.1,0.1l-0.1,0.1l-0.2,0.1l-0.1,0.1l-0.2,0.1l-0.2,0l-0.1,0l-0.1,0
		l-0.1,0l-0.1,0l-0.1,0l-0.1,0l-0.1,0l-0.1,0l-0.1,0l-0.1,0l-0.1,0l-0.1,0l-0.1,0l-0.1,0l-0.1,0l-0.1,0.1l-0.2,0.2l-0.1,0l-0.1,0
		l-0.1,0l-0.1,0l-0.1,0l-0.1,0l0,0l0-0.1l0,0l0,0l-0.1,0l-0.1,0l-0.1,0l-0.1,0l-0.1,0l0,0l-0.1,0l0,0l-0.1,0l-0.1,0l-0.1,0l-0.1,0.1
		l-0.1,0.1l0,0.1l0,0l-0.1,0.1l-0.1,0l-0.2,0.1l-0.1,0l-0.1,0l-0.1,0l-0.1,0l-0.1,0l-0.1,0l-0.1,0l-0.1-0.1l-0.1,0l-0.1,0l-0.1-0.1
		l-0.1,0l-0.1,0l-0.1,0l-0.1-0.1l-0.1-0.1l-0.1-0.1l-0.1,0l-0.1,0l-0.1,0l-0.1,0l-0.1,0l-0.1,0l-0.1,0l-0.1,0l-0.1,0l-0.1,0l-0.1,0
		l-0.1,0l-0.1,0l-0.1,0l-0.5-0.1l-0.3,0l-0.2,0l-0.1,0l-0.1,0l-0.1-0.1l-0.1,0l-0.1,0l-0.1,0l-0.5,0l-0.3,0l-0.2,0l-0.1,0l-0.2,0
		l-0.2,0l-0.1,0l-0.1,0l-0.1,0l-0.1-0.1l-0.1-0.1l-0.1-0.1l-0.2-0.1l-0.2,0l-0.2,0l-0.2,0l-0.1,0l-0.1,0l-0.1,0l-0.1-0.1l-0.1,0
		l-0.2,0l-0.2,0l-0.2,0l-0.2,0l-0.2,0l-0.1,0l-0.2,0l-0.2,0l-0.4-0.1l-0.3-0.1l-0.1-0.1l-0.1-0.1l0-0.1l-0.1-0.1l-0.1-0.2l-0.1-0.1
		l-0.1-0.1l-0.2-0.2l-0.1,0l-0.1-0.1l-0.1,0l-0.1,0l-0.1,0l-0.1,0.1l-0.1,0.1l-0.1,0l-0.2,0l-0.2,0l-0.1,0l-0.2,0l-0.2,0l-0.1,0
		l-0.2,0l-0.2,0l-0.1,0l-0.2,0l-0.2,0l-0.3,0l-0.4,0l-0.2,0l-0.3,0l-0.2,0l-0.1,0l-0.1,0l-0.1,0l-0.1,0l-0.1,0l-0.1,0l-0.1,0l-0.1,0
		l-0.4,0l-0.1,0l-0.1,0l0,0l0,0l0,0l0,0l0,0l0,0l0,0l0,0l0,0l0,0l0,0l0,0.1l-0.1,0.1l-0.1,0.1l-0.1,0.1l0,0l-0.1,0l-0.1,0l-0.1,0
		l-0.1,0l-0.1,0l-0.1,0l-0.1,0l-0.1,0l-0.1,0l-0.1,0l-0.1,0l-0.1,0l-0.1,0l-0.1,0l-0.1,0l-0.1,0l-0.1,0l-0.1,0l-0.1,0l-0.2,0l-0.1,0
		l-0.1,0l-0.1,0l-0.1,0l-0.1,0l-0.1,0l-0.1,0l0,0l-0.1,0l-0.1,0l-0.1,0l-0.1,0l-0.1,0l0,0l0,0l0,0l0,0l-0.1,0l-0.1,0l-0.1,0l-0.1,0
		l-0.1,0l-0.1,0l-0.1,0l-0.1,0l-0.2,0l-0.2,0l-0.3,0l-0.1,0l-0.1,0l-0.1,0l-0.1,0l-0.1,0l-0.1,0l-0.1,0l-0.1,0l-0.1,0l-0.1,0l-0.1,0
		l-0.1,0l-0.1,0l0,0l-0.1,0l0,0l-0.1,0l-0.1,0l0,0l-0.1,0l-0.1,0l-0.1,0l-0.1,0l-0.1,0l-0.1,0l-0.1,0l-0.1,0.1l0,0l0,0l-0.1,0
		l-0.1,0l0,0l0,0l0,0l0,0l-0.1,0l-0.1,0l0,0l0,0l0,0l-0.1,0l0,0l-0.1,0l-0.1,0l-0.1,0l-0.1,0l-0.1,0l-0.1,0l-0.1,0l-0.1,0l-0.1,0
		l-0.2,0l-0.1,0l-0.2,0l-0.1,0l-0.1,0l-0.1-0.1l-0.1-0.1l-0.1-0.1l-0.1-0.1l-0.1-0.1l-0.1-0.1l-0.1,0l-0.1-0.1l-0.1-0.1l-0.1,0
		l-0.1,0l-0.1,0l-0.1,0l0-0.1l0,0l0,0l0-0.1l0,0l0,0l-0.1,0l-0.1,0l-0.1,0l-0.1,0l0,0l-0.1,0l-0.1,0l0,0l0,0l-0.1,0l0,0l0,0l-0.1,0
		l-0.1,0l-0.1,0l-0.1,0l-0.1,0l0,0l-0.1,0.1l-0.1,0l-0.1,0l-0.1,0l-0.1,0l-0.1,0l-0.1,0l-0.1,0l-0.1,0l-0.1,0l-0.1,0l-0.1,0l-0.1,0
		l-0.1,0l-0.1,0l-0.1,0l-0.1,0l-0.1,0l-0.1,0l-0.1,0l0,0l0,0l0,0l0,0l-0.1,0l-0.1,0l-0.1,0l-0.1,0l-0.1,0l-0.1,0l-0.1,0l-0.1,0
		l-0.1,0l-0.1,0l-0.4,0.2l-0.1,0l-0.1,0l-0.1,0l-0.1,0l-0.1,0l0,0l0,0l0-0.1l0,0l0-0.1l0-0.1l0-0.1l0-0.1l0.1-0.1l0-0.1l-0.1-0.1
		l-0.1,0l-0.1,0l-0.1,0l-0.1,0.1l-0.1,0.1l-0.1,0.1l0,0l0,0.1l0,0l0,0l-0.1,0l-0.1,0l-0.1,0l-0.1,0l-0.1,0l-0.1,0l-0.1,0l-0.1,0
		l-0.1,0l-0.1,0l-0.1,0l-0.1,0l0,0l0,0l-0.1,0l-0.1,0l-0.1,0l-0.2,0l-0.1,0l-0.1,0l-0.1,0l-0.1,0l-0.1,0l-0.1,0l-0.1,0l-0.1,0.1
		l0,0.1l0,0.1l-0.2,0.1l-0.2,0l-0.3,0l-0.2,0l-0.1,0l0,0l0,0l-0.1-0.1l-0.1-0.1l0-0.1l-0.1-0.1l-0.1-0.1l-0.1,0l-0.1,0l-0.1,0
		l-0.1,0l-0.1,0l-0.1,0l-0.2,0l-0.1,0l-0.1,0l-0.1-0.1l-0.1-0.1l-0.1-0.1l-0.1,0l-0.1,0l-0.1,0l0,0l0,0.1l0,0.1l0,0.1l0,0l-0.1,0
		l-0.1,0l-0.1,0l-0.1,0l-0.1,0l-0.1,0.1l0,0.1l0,0.1l0,0.1l-0.1,0.1l-0.2,0.4l0,0l-0.1,0l-0.1,0l-0.1,0l-0.1,0.1l0,0l-0.1,0l-0.1,0
		l-0.1,0l-0.1,0l-0.1,0l-0.2,0l-0.2,0l-0.2,0l-0.1,0l-0.1,0l-0.1,0l-0.1,0l0,0l-0.1,0l-0.1,0l-0.1,0l-0.1,0l-0.1,0l-0.1,0l-0.2,0
		l-0.1,0l-0.1,0l0,0l0,0l-0.1,0l-0.1,0l-0.1,0.1l-0.1,0l-0.1,0l-0.2,0l-0.1,0l-0.1,0l-0.1,0l-0.1,0l-0.1,0l-0.1,0l-0.8,0.1l0-0.1
		l0.1-15.1l0-10.1l1.6,0l1.5,0l1.6,0l1.6,0l1.7,0l1.4,0l1.5,0l1.6,0l1.7,0l1.6,0l3.3,0l1.6,0l1.7,0l1.6,0l1.6,0l3.3,0l0.9,0l8.9,0
		l1.6,0l1.6,0l1.6,0l1.6,0h1.7l1.7,0l0-3.4l0-3.4l1.6,0l0.7,0l1,0l2.2,0l2.1,0l2,0l2.2,0l2.3,0l2.1,0l1.8,0l0.7,0l1.8,0l1.7,0l1,0
		l1.7,0L170.1,208.5z"/>
	<path id="West_Highland" class="st0" d="M170.1,144.9l0,2.6l-0.1,0.5l0,2l0,2.6l0,1.2l0.2,1.3l-0.1,1.5l0,1.2l0,2.5l0.1,1.6l0,2.1
		l0,1.2l0,3.2l0,1.7l0,4.9l-2.4,0l-2.1,0l-2,0l-0.1,0l-1.6,0l-4.9,0l-3.2,0l-3.3,0l-3.2,0l-3.3-0.1l-1.6,0l-1.7,0l-3.3,0l-1.6,0
		l-1.6,0h-1.5l-0.1,0H131l-1.6,0l-1.7,0l-1.6,0l-1.6,0l-1.6,0l-1.6,0l-1.7,0l-1.6,0l-2.9,0l-1.1,0l-2.4,0l-1.7,0l-4.1,0l-0.7,0l-1,0
		l-0.8,0l-1.6,0l-2.9,0l-1.6,0l-0.1,0l-1.6,0l-1.6,0l-1.6,0h0l0-10l0-20.1l0,0l1.6,0l1.6,0l1.6,0l1.6,0l1.6,0l1.6,0l2.6,0l0.6,0
		l1.7,0l1.5,0l3.2,0l1.6,0l1.6,0l3.2,0.1l1.6,0l1.6,0l1.5-0.1l0.1,0l1.6-0.1l1.6,0l1.6,0l1.6,0l1.6,0l1.7,0l1.6,0l1.6-0.1l1.6-0.1
		l1.6,0l1.7,0l1.6,0l1.7,0l1.7,0.1l1.1,0l1.6,0.1l2.1,0l2.1,0.1l4.4,0.1l6.5,0.1l4.6,0.1L170.1,144.9z"/>
	<path id="Sloan_Lake" class="st0" d="M170.1,174.9l0,1.6l0,0.2l-0.1,0.1l0,1.5l0,3.4l0,1.5l0.1,0.1l0,1.7l0,2.2l-0.2,0.1l0,1.1
		l-0.1,3.4l0,1.9l0.2,0.1l0,1.3l0,1.3l-0.1,0.1l0,1.9l0,3.4l0,1.8l0.1,0.1l0,1.4l0,1.3l0,0.4l0,1.6l-4.5,0l-1.7,0l-1,0l-1.7,0
		l-1.8,0l-0.7,0l-1.8,0l-2.1,0l-2.3,0l-2.2,0l-2,0l-2.1,0l-2.2,0l-1,0l-0.7,0l-1.6,0l0,3.4l0,3.4l-1.7,0h-1.7l-1.6,0l-1.6,0l-1.6,0
		l-1.6,0l-8.9,0l-0.9,0l-3.3,0l-1.6,0l-1.6,0l-1.7,0l-1.6,0l-3.3,0l-1.6,0l-1.7,0l-1.6,0l-1.5,0l-1.4,0l-1.7,0l-1.6,0l-1.6,0l-1.5,0
		l-1.6,0l0-10.1l-0.1-30.2h0l1.6,0l1.6,0l1.6,0l0.1,0l1.6,0l2.9,0l1.6,0l0.8,0l1,0l0.7,0l4.1,0l1.7,0l2.4,0l1.1,0l2.9,0l1.6,0l1.7,0
		l1.6,0l1.6,0l1.6,0l1.6,0l1.7,0l1.6,0h1.7l0.1,0h1.5l1.6,0l1.6,0l3.3,0l1.7,0l1.6,0l3.3,0.1l3.2,0l3.3,0l3.2,0l4.9,0l1.6,0l0.1,0
		l2,0l2.1,0L170.1,174.9z"/>
	<path id="Berkeley" class="st0" d="M170.2,103l0,0.2l0,1.1l0,2.6l-0.1,1.2l0,1.2l0,3.3l0.2,1.9l-0.2,1.2l0,2.2l0,3.3l0.1,3.4
		l-0.2,2.4l0,2.9l0,3.5l0.2,1.4l-0.2,1.4l0,1.1l0,2.5l0,0.8l0.2,1.7l0,1.3l0,1.3l-2-0.1l-4.6-0.1l-6.5-0.1l-4.4-0.1l-2.1-0.1l-2.1,0
		l-1.6-0.1l-1.1,0l-1.7-0.1l-1.7,0l-1.6,0l-1.7,0l-1.6,0l-1.6,0.1l-1.6,0.1l-1.6,0l-1.7,0l-1.6,0l-1.6,0l-1.6,0l-1.6,0l-1.6,0.1
		l-0.1,0l-1.5,0.1l-1.6,0l-1.6,0l-3.2-0.1l-1.6,0l-1.6,0l-3.2,0l-1.5,0l-1.7,0l-0.6,0l-2.6,0l-1.6,0l-1.6,0l-1.6,0l-1.6,0l-1.6,0
		l-1.6,0l0-20.1l0-19.7l0,0l0.7-0.2l1-0.4l0.6-0.3l1.8-0.9l2.3-1.2l0.6-0.2l1.1-0.4l1.3-0.3l0.4-0.1l0.8-0.1l1.5-0.1l0.9,0l0.8,0.1
		l0.7,0.1l0.8,0.1l0.8,0.3l0.9,0.3l0.8,0.3l0.9,0.5l1.1,0.5l2.3,1.2l1.4,0.5l1.4,0.3l0.6,0.1l0.7,0.1l0.7,0.1l0.6,0l6.4,0l7.6,0l3,0
		l1.6,0l1,0l2,0.1l2.8,0.2l2.2,0.1l1,0l0.7,0l0.8-0.1l0.5,0l0.6-0.1l0.9-0.1l1.1-0.2l4.6-0.8l5.5-0.7l2.2-0.3l2-0.2l1.6-0.1l1-0.1
		l0.8,0l0.1,0L170.2,103z"/>
	<path id="Regis" class="st0" d="M170.2,89.5l-0.1,4.9l0.1,5.2l0,2.7l0,0.7l-0.4,0l-0.1,0l-0.8,0l-1,0.1l-1.6,0.1l-2,0.2l-2.2,0.3
		l-5.5,0.7l-4.6,0.8l-1.1,0.2l-0.9,0.1l-0.6,0.1l-0.5,0l-0.8,0.1l-0.7,0l-1,0l-2.2-0.1l-0.1,0l-2.7-0.2l-2-0.1l-1,0l-1.6,0l-3,0
		l-7.6,0l-6.4,0l-0.6,0l-0.7-0.1l-0.4-0.1l-0.3,0l-0.6-0.1l-1.4-0.3l-1.4-0.5l-2.3-1.2l-1.1-0.5l-0.9-0.5l-0.8-0.3l-0.9-0.3
		l-0.8-0.3l-0.8-0.1l-0.7-0.1l-0.8-0.1l-0.9,0l-1.5,0.1l-0.8,0.1l-0.4,0.1l-1.3,0.3l-1.1,0.4l-0.6,0.2l-2.3,1.2l-1.8,0.9l-0.6,0.3
		l-1,0.4l-0.6,0.2l-0.1,0l0,0v0v-0.4l-26.1-0.1l0-12.5l-6.5,0l0-5.5l1.6,0l0-2.1l4.9,0l0,1.6l2.4,0l0.9-1.6l22.8,0l25.6-0.1
		l26.1-0.1l0-2.5l13.1,0l0,2.5l13.1,0.1l0.1,0L170.2,89.5z"/>
	<path id="Chaffee_Park" class="st0" d="M245.3,84.6l-0.1,23.5l-0.5-0.1l-2.7-0.7l-2.6-0.7l-3.1-0.9l-1.8-0.3l-1-0.1l-1.2-0.1
		l-0.3,0l-0.6,0l-0.9,0.1l-2.1,0.3l-2.2,0.3l-1.8,0.3l-0.8,0.1l-0.7,0l-0.2,0l-1,0l-0.2,0l-1,0l-1.8-0.2l-1.9-0.2l-1.4-0.2l-2.4-0.2
		l-0.4,0l-1.7-0.1l-1.6,0l-10.4-0.2l-3.9-0.1l-5.7,0l-2.7,0l-0.6,0l-0.8,0l-0.9-0.1l-0.6-0.1l-1.2-0.1l-3-0.6l-1-0.2l-3.1-0.5
		l-0.8-0.1l-0.9-0.1l-1.3-0.1l-1.7-0.1l-0.2,0l-0.3,0l0-0.7l0-2.7l-0.1-5.2l0.1-4.9l0-5.2l-0.1,0l-0.1-7.9l0.1,0l0.5-0.2l0.2,0
		l0.2,0l0.5-0.1l0.2,0l0.2,0l0.2,0l0.2,0l0.2,0.1l0.2,0.1l0.2,0.1l0.2,0.1l0.2,0.1l0.1,0.1l0.1,0.1l0.4,0.3l0.2,0.1l0.2,0.1l0.2,0.1
		l0.2,0.1l0.2,0.1l0.2,0.1l0.2,0l0.2,0l0.2,0l0.2,0l0.2,0h0h0l0.2,0l0.2-0.1l0.2-0.1l0.2-0.1l0.2-0.1l0.2-0.1l0.2-0.1l0.7-0.6
		l0.1-0.1l0.1-0.1l0.1-0.1l0.1-0.2l0.1-0.2l0.1-0.2l0.1-0.2l0.1-0.3l0.1-0.3l0.1-0.3l2.1,0.5l-1.3,3l2.5,0.5l0.3,0.3l0,5l13,0.1
		l26.2,0.1L245.3,84.6L245.3,84.6z"/>
	<path id="Highland" class="st0" d="M245.1,144.9l0,0.4l0,3.1l-0.1,16.5l-0.2,0.1l-0.4,0.1l-0.3,0.1l-0.3,0.1l-0.1,0l-0.1,0
		l-0.2,0.1l-0.4,0.2l-0.2,0.1l-0.4,0.3L242,166l-0.3,0.2l-0.4,0.2l-0.6,0.3l-0.6,0.2l-1.2,0.4l-1.1,0.3l-0.5,0.1l-0.5,0.1l-0.4,0
		l-0.4,0l-0.4,0l-0.3,0.1L235,168l-0.3,0.1l-0.4,0.2l-0.4,0.2l-0.5,0.2l-0.2,0l-0.4,0.1l-0.4,0.1l-0.1,0l-0.1,0.1l-0.2,0.2l-0.1,0.1
		l-0.4,0.3l-0.7,0.5l-0.4,0.3l-0.4,0.2l-0.3,0.2l-0.3,0.2l-0.3,0.2l-0.2,0.3l-0.2,0.3l-0.2,0.3l-0.1,0.2l-0.4,0.5l-0.3,0.4l-0.5,0.5
		l-0.4,0.3l-0.6,0.5l-0.2,0.2l-0.9,1l-0.3,0.3l-0.1,0.1l-0.1,0.2l-0.2,0.3L224,177l0,0.2l0,0.2l0,0.2l-0.1,0.2l-0.2,0.3l-0.2,0.3
		l-0.2,0.3l-0.2,0.2l-0.4,0.5l-0.3,0.4l-0.2,0.2l-0.2,0.3l-0.1,0.2l-0.3,0.4l-0.2,0.3l-0.5,0.6l-0.4,0.4l-1.2,1.4l-1.7,1.7l-0.1,0
		l-0.1,0l-0.2,0l-0.3,0l-0.3,0l-0.1,0l-0.1,0.1l-0.2,0.2l-0.8,0.6l-0.2,0.1l-0.2,0.2l-0.3,0.4l-0.2,0.2l-0.1,0.1l-0.1,0.1l-0.3,0.2
		l-1.8-0.9l-0.8-0.4l-3.6-1.7l-0.2-0.1l-3.9-1.4l-4.1-1.5l-0.7-0.2l-2.1-0.6l-0.6,0.1l-2.5-0.9l-0.5-0.2l-2.5-0.9l-1.9-0.7l-2.3-0.9
		l-3.4-1.3l-2.3-1.2l-2,0l-1.5,0l-1.3,0l-1.5,0l-2.1,0l-2.4,0l0-4.9l0-1.7l0-3.2l0-1.2l0-2.1l-0.1-1.6l0-2.5l0-1.2l0.1-1.5l-0.2-1.3
		l0-1.2l0-2.6l0-2l0.1-0.5l0-2.6l1.8,0l1.1,0l1.6,0l2,0l2.3,0l2.6,0l1.7,0l4.3,0l1.6,0l1.1,0l1.6,0l4.3,0l1.6,0l0.9,0l0.7,0l0.9,0
		l0.8,0l0.9,0l0.7,0l0.4,0l1.1,0l0.5,0l1.2,0l0.5,0l1.1,0l1.7,0l1.6,0l1.1,0l1.7,0l4.4,0l1.7,0h1.1l1.6,0l1.1,0l0.5,0l1.6,0l1.6,0
		l1.6,0l1.5,0l0.2,0l1.6,0l1.7,0l1.7,0l1.6,0l1.6,0l0.4-0.1l5.7,0.1L245.1,144.9z"/>
	<path id="Athmar_Park" class="st0" d="M261.3,346.5l-1.6,0l-4.1,0l-3.3,0l-3.3,0l-3.3,0l-3.3,0l-3.2,0l-3.3,0l-12.9,0l-1.2,0
		l-5.9,0l-1.8,0l-3.7,0l-2.8,0l-2.8,0l-3.2,0l-5,0l-3.7,0l-2.9,0l-3.2,0l-3.2,0l-3.3,0l-3.3,0l-2.8,0l-3.7,0l-0.1-2.3l0-2.8l0-1.8
		v-3.3l0-2.6l0-2.1l0-2.9l0-2.3l0-2.7l0-2.2l0-2.9l0-2.2l0-0.4l0-2.4l0-2.4l0-4.9l3.4,0.1l3.2,0l1.6,0l1.7,0l1.5,0l1.8,0l1.4,0
		l1.9,0l1.4,0l1.6,0l1.6,0l1.6,0l1.7,0l1.7,0l3.3,0l9.8,0l6.5,0l6.6,0.1l6.6,0l6.4,0.1l2.5-0.1l1.4,0l0,0l0.4,0.6l0.1,0.2l0.1,0.2
		l0.1,0.4l0.1,0.5l0.3,1l0.2,0.4l0.1,0.2l0.6,1.1l0.6,1l0.3,0.5l0.3,0.6l0.6,1.4l0.2,0.7l0.1,0.3l0.1,0.3l0.1,0.3l0.2,0.3l0.4,0.7
		l0.9,1.8l0.2,0.4l0.2,0.4l0.2,0.5l0.1,0.4l0.1,0.4l0.1,0.3l0.1,0.2l0.3,0.4l0.1,0.2l0.2,0.4l0.2,0.4l0.1,0.2l0.2,0.3l0.2,0.3
		l0.3,0.4l0.4,0.6l0.2,0.2l0.3,0.2l0.2,0.2l0.8,0.7l0.2,0.1l0.8,0.7l2.1,1.8l1,1l0.5,0.5l0.2,0.3l0.2,0.3l0.9,1.3l0.6,0.8l1.2,1.4
		l0.7,0.8l0.5,0.5l0.3,0.2l0.2,0.3l0.5,0.8l0.3,0.6l0.3,0.8l0.1,0.2l0.1,0.1l0.2,0.2l0.2,0.2l0.2,0.2l0.1,0.2l0.1,0.3l0.1,0.2
		l0.1,0.3l0.1,0.8l0,0.5l0,0.4l0,0.8l0,0.7l-0.1,0.7l-0.1,0.5l-0.1,0.6l0,0.3l0,0.2l0,0.3l0,0.4L261.3,346.5z"/>
	<path id="University" class="st0" d="M352.7,379.6l0,0.3l0,0.5l0,3.1l0,1.4l0.1,0.8l0,1.3l0,4.9l0,5.1l0,5l0,5l0,5l0,5l0,5l0,5
		l-0.1,4.4l-0.1,5.8l0,2.4l0,3.2l0,1l-10.1-0.1l0,3.4l-15.9-0.1l0.1-15l-3.2,0l-3.2,0l-6.6-0.1l0-5v0l0-5l0-5l0-5.1l0-4.8l0-5.1
		l0.1-5l0-5.1l0-4.8l-0.1-0.2l0-5.1l0-4.9l0-5l0-3.7l0-0.4l0-0.9l0-0.9l0-0.4l0.4,0.2l9.4,4.6l3,1.5l0.6,0.3l1.2,0.6l8,4l1.8,0.9
		l1.1,0.5l1.5,0.5l1.5,0.4l1.5,0.3l1.3,0.2l1.1,0.1l1.6,0.1l3.1,0L352.7,379.6z"/>
	<path id="Rosedale" class="st0" d="M313.9,396.9l-0.1,5l0,5.1l0,4.8l0,5.1l0,5l0,5v0l-13-0.1l-26.1,0.1l0-5l0-5l0-5l0-5l0-5l0-5
		l3.3-0.1l3.2,0l3.2,0l3.3,0l3.3,0l3.2,0l3.2,0.1l3.4,0l3.4,0l3.2,0l3.2,0L313.9,396.9z"/>
	<path id="Cheesman_Park" class="st0" d="M350.6,256.4l-1.6,0l-1.6,0l-1.6,0l-1.6,0l-1.6,0l-1.6,0l-1.6,0l-1.6,0l-2.9,0l-1.9,0
		l-1.6,0l-1.6,0l-1.6,0l-1.6,0l-1.6,0l-3.2,0l-3.2,0l-3.2,0l0-3.8l-0.1-4.4l0-4.6l-0.1-4l0-4.8l0-4.2l0.1-3.2l0-1.4l0.7,0l1.7,0
		l0.7,0l1.6,0l1.4,0l1.3,0l0.5,0l1.3,0l3.4,0l1.7,0l1.7,0l1.7,0l1.7,0l1.7,0l1.7,0l1.8,0l1.8,0l1.7,0l1.7,0l1.7,0l1.7,0l1.7,0l1.7,0
		l0,0.7l0,3.7l0,4.4l0,4.9l0,4.4l0,3.3l-0.1,0.9l0,1.3l0,1.1l-0.2,0.4l-0.5,0.7l-0.2,0.5L350.6,256.4z"/>
	<path id="Hilltop" class="st0" d="M489.3,306.2l-2.5,0l-1.9,0l-2.7,0l-0.4,0l-3.4,0l-3.2,0.1l-3.3,0l-3.2,0l-3.2,0l-3.2,0l-3.2,0
		l-3.2,0l-3.2,0l-3.2,0.1l-3.3,0l-3.3,0l-3.2,0l-3.3,0l-6.2-0.1l-0.3,0.3l-25,0.1l-0.1-1.4l0.1-4.2l0-4.4l0-1.2l0-3.2l0-3.4l0-0.9
		l0-1.5l0-2.9l0-4.3l0-4.4l0-1.7l0-2.7l0-0.6l0-2.6l0-0.8l3.4,0l3.2,0l3.2,0l3.2,0l3,0l3.1,0l3.1,0l3,0l3,0l3.1,0l3.1,0l3.1,0l3.1,0
		l3.1,0l3.1,0l3.1,0l3.2,0l3.1,0l3.1,0l3.1,0l3.1,0l3.1,0l3.1,0l3,0l3.2,0l1,0l2.3,0l3.2,0l3.2,0l3.3,0l3.4,0l3.2,0l3.3,0l0.7,0
		l2.7,0l-0.2,1.1l0,0.6l0,0.6l0,4.3l0,2.5l0,1.1l-0.5,0l-2.9,0l-2.8,0l-0.6,0l-1.4,0l-0.4,0h-0.6l-3,0h-0.6l0,0.4l0,0.5l0,0.5l0,4
		l0,3.5l0,0.5l0,0.5l0,0.3l-0.1,0l-0.1,0l-0.1,0l-0.1,0l-0.1,0l-1.1,0l-2.6,0l-2.7,0l-2.6,0l-3.2,0l0.2,0.2l0,5.6l0,4l7.1,0l7.5,0
		l-0.1,0.1l0,0l-0.6,0.8l-3,3.8l-0.9,1.2l-2.4,3.1l-0.3,0.4L489.3,306.2z"/>
	<path id="Montclair" class="st0" d="M508.1,225.8l0,4l0,4l0,4.6l0,2.6l0,1.5l0,3.5l0,3.4l0,2.7l0,1.9l0,0.5l0,0.8l0,0.8l0,1.7
		l0,1.7l0,2.9l0,0.4l0,0.5l0.1,2.9l-2.7,0l-0.7,0l-3.3,0l-3.2,0l-3.4,0l-3.3,0l-3.2,0l-3.2,0l-2.3,0l-1,0l-3.2,0l-3,0l-3.1,0l-3.1,0
		l-3.1,0l-3.1,0l-3.1,0l-3.1,0l-3.2,0l0-6.8l0-3.3l1.4,0l0-3.4l0-1.6l0-1.7l0-3.4l0-2.1l0-2.9l0-1.1l0-4.4l0-4.5l0-5.1l1.8,0l1.5,0
		l1.6,0l1.7,0l1.4,0l1.9,0l1.1,0l2.2,0l0.8,0l2.6,0l3.5,0l3.1,0l3.2,0l1,0l2.2,0l3.2,0l3.2,0l3.3,0l3.4,0l3.2,0l3.2,0L508.1,225.8z"
		/>
	<path id="Hale" class="st0" d="M455.8,225.8l0,5.1l0,4.5l0,4.4l0,1.1l0,2.9l0,2.1l0,3.4l0,1.7l0,1.6l0,3.4l-1.4,0l0,3.3l0,6.8
		l-3.1,0l-3.1,0l-3.1,0l-3.1,0l-3.1,0l-3.1,0l-3.1,0l-3,0l-3,0l-3.1,0l-3.1,0l-3,0l-3.2,0l-3.2,0l-3.2,0l-3.4,0l0-3.6l0-1.2l0-5.3
		l0-3.5l0-1.5l0-2.9l0-2.2l0-2.2l0-2.9l0-1.1l0-4.5l0-4.4l0-5.1l3.3,0l1.5,0l1.6,0l3.2,0l3,0l1.8,0l1.4,0l3.3,0l3.1,0l1.7,0l1.5,0
		l1.7,0l1.5,0l1.6,0l1.6,0l1.6,0l1.6,0l1.5,0l1.7,0l3.1,0l3.2,0l3.3,0L455.8,225.8z"/>
	<path id="North_Park_Hill" class="st0" d="M508.2,195.6l-3.4,0l-3.2,0l-3.2,0l-3.4,0l-3.4,0l-3.1,0l-3.3,0l-1.2,0l-0.4,0l-0.3,0
		l-1.3-0.2l-3.2,0l-3.2,0l-3.3,0l-3.4,0l-3.4,0l-3.3,0l-3.3,0l-3.3,0l-3.3,0l-3.2,0l-3.2,0l-3.3,0l-3.3,0l-3.3,0l-3.3,0l-3.3,0
		l-3.1,0l-3.1,0l-3.1,0l-3.1,0l-3.1,0l-3.1,0l-3.1,0l-3.3,0l0-5l0-4.4l0-0.7l0-1l0-2.7l0-1.5l0-5l0-5.2l0-4.5l0-0.4l2.5-0.1l0.4,0
		l0.6,0l3.4,0l3.4,0l3.4,0l1.7,0l1.7,0l3.4,0l3.6,0l6.9,0l4.9,0l4.9,0l4.9,0l4.4,0l0.4,0l0.4,0l0.5,0l2.3,0l3.2,0l3.2,0l3.4,0l3.4,0
		l3.2,0l3.2,0l3.3,0l1.2,0.1l1.9,0l3.2,0l3.2,0l3.4,0l3.4,0l3.2,0l6.5,0l0,1.6l0,3.3l0,5l0.2,1.1l0,9.1l-0.1,3.7l0,3.3L508.2,195.6z
		"/>
	<path id="South_Park_Hill" class="st0" d="M508.2,195.6l0,3.3l0,3.3l0,3.3l0,5.1l0,5.1l0,3.3l0,1.7l0,1.4v3.7l-3.3,0l-3.2,0l-3.2,0
		l-3.4,0l-3.3,0l-3.2,0l-3.2,0l-2.2,0l-1,0l-3.2,0l-3.1,0l-3.5,0l-2.6,0l-0.8,0l-2.2,0l-1.1,0l-1.9,0l-1.4,0l-1.7,0l-1.6,0l-1.5,0
		l-1.8,0l-3.1,0l-3.3,0l-3.2,0l-3.1,0l-1.7,0l-1.5,0l-1.6,0l-1.6,0l-1.6,0l-1.6,0l-1.5,0l-1.7,0l-1.5,0l-1.7,0l-3.1,0l-3.3,0l-1.4,0
		l-1.8,0l-3,0l-3.2,0l-1.6,0l-1.5,0l-3.3,0l0-3.5l0-1l0-0.5l0-1.7l0-2.3l0-1l0-3.3l0-3.2l0-3.5l0-5.1l0-5l3.3,0l3.1,0l3.1,0l3.1,0
		l3.1,0l3.1,0l3.1,0l3.1,0l3.3,0l3.3,0l3.3,0l3.3,0l3.3,0l3.2,0l3.2,0l3.3,0l3.3,0l3.3,0l3.3,0l3.4,0l3.4,0l3.3,0l3.2,0l3.2,0
		l1.3,0.2l0.3,0l0.4,0l1.2,0l3.3,0l3.1,0l3.4,0l3.4,0l3.2,0l3.2,0L508.2,195.6z"/>
	<path id="University_Park" class="st0" d="M404.8,384.5l0,0.9l0,2.6l0,2.5l0,2l-0.2,4.7l0,5l0,4.9l0,1.4l0,2.8l0,4l0,9.9l0,2.1
		l-3,0l-2.8,0l-2.8,0l-1.5,0l-1.3,0l-1.4,0l-1.3,0l-0.5,0l-0.2,0l-0.3,0.1l-0.8,0.3l-1.3,0.4l-0.6,0.2l-0.6,0.2l-1.1,0.3l-0.4,0.1
		l-0.4,0l-0.6,0.1l-0.6,0l-0.5,0l-0.6,0l-0.2,0l-0.2,0l-0.2,0l-0.2,0l-0.3-0.1l-0.6-0.1l-0.3-0.1l-0.5-0.1l-0.5-0.2l-0.3-0.1
		l-0.4-0.2l-0.4-0.2l-0.6-0.4l-0.4-0.1l-1.9-0.1l-2.6,0l-2.6,0l-1.5,0l-3.6,0l-3.9,0l-3.9,0l-3.9,0l0-5l0-5l0-5l0-5l0-5l0-5l0-5.1
		l0-4.9l0-1.3l-0.1-0.8l0-1.4l0-3.1l0-0.5l0-0.3l2.5,0l8.5,0l4.8,0l7,0l1.7,0l0.8,0l0.7,0l1.3,0.1l2.7,0.2l2.1,0.2l2.7,0.4l1.9,0.3
		l3.5,0.8l3.1,0.8l2,0.5l3.1,0.8l1.9,0.5l0.7,0.2L404.8,384.5z"/>
	<path id="Platt_Park" class="st0" d="M313.9,365.5l0,0.4l0,0.9l0,0.9l0,0.4l0,3.7l0,5l0,4.9l0,5.1l0.1,0.2l0,4.8l0,5.1l-3.2,0
		l-3.2,0l-3.2,0l-3.4,0l-3.4,0l-3.2-0.1l-3.2,0l-3.3,0l-3.3,0l-3.2,0l-3.2,0l-3.3,0.1l0-5l0-5.1l0.1-5l0-5l0.1-5l0-5.1l0.1-4.9
		l0-5.1l0.1-4.9l0.1-5.1l3.4,0l3.2,0l3.1,0l3.3-0.1l1.5,0l0.5,0.5l2.4,2.1l0.3,0.3l2.2,1.7l1.1,0.9l1.3,1.2l0.9,0.8l0,0l2.7,2.4
		l3.7,3.4l1.8,1.5l1,0.8l1.7,1.1l1.2,0.7l3.2,1.6l0.1,0.1L313.9,365.5z"/>
	<path id="Overland" class="st0" d="M275,346.6l-0.1,5.1l-0.1,4.9l0,5.1l-0.1,4.9l0,5.1l-0.1,5l0,5l-0.1,5l0,5.1l0,5l0,5l0,5l0,5
		l0,5l0,5l0,5l-26.2,0.1l-8.8,0l0-1.2l0.6-0.2l0.6-0.3l0.5-0.2l0.5-0.3l0.4-0.3l0.4-0.3l0.3-0.3l0.4-0.4l0.4-0.4l0.2-0.2l0.2-0.3
		l0.2-0.5l0.1-0.3l0.1-0.3l0.1-0.3l0.3-0.6l0.2-0.3l0.2-0.3l0.1-0.3l0.1-0.2l0-0.2l0.1-0.4l0.1-0.4l0.1-0.5l0.2-0.5l0.1-0.4l0.2-0.5
		l0.3-0.6l0.4-0.9l0.2-0.6l0.2-0.5l0.1-0.4l0.1-0.2l0-0.2l0-0.4l0-0.2l0-0.4l0-0.3l0-0.3l0.1-0.4l0.1-0.5l0-0.2l-0.1-0.2l-0.1-0.4
		l0-0.2l0-0.2l0-0.2l0-0.2l-0.1-0.3l-0.2-0.6l-0.1-0.5l-0.2-0.8l0-0.2l-0.1-0.5l0-0.2l0-0.2l0-0.4l0-0.3l-0.1-0.3l-0.1-0.5l0-0.5
		l0-0.6l0-0.4l0-0.4l0-2.2l-0.1-0.7l-0.1-0.6l-0.1-0.5l-0.1-0.4l-0.2-1.5l-0.1-0.5l-0.2-0.6l-0.3-0.7l-0.5-1.1l-0.3-0.6l-0.3-0.5
		l-0.2-0.3l-0.2-0.3l-0.5-0.5l-0.4-0.3l-0.3-0.2l-0.3-0.1l-0.3-0.1l-0.2-0.1l-0.4-0.1l-0.7-0.2l-0.6-0.2l-1.1-0.5l-1-0.6l-0.3-0.2
		l-0.3-0.3l-0.3-0.3l-0.2-0.2l-0.4-0.9l-0.1-0.3l0-0.3l-0.1-1l0-0.8l0.1-0.9l0-0.2l0.1-0.5l0.1-0.5l1.1-3.6l1-3.8l0.1-0.4l0.1-0.4
		l0.1-0.6l0.1-0.5l0.1-0.4l0.1-0.3l0.1-0.2l0.1-0.3l0.1-0.3l0.2-0.5l0-0.2l0-0.2l0-0.4l0-0.2l0-0.1l0-0.1l0.1-0.3l0.2-0.4l0.2-0.4
		l0.2-0.4l0.1-0.6l0.1-0.3l0.2-0.5l0.1-0.4l0.1-0.2l0.1-0.4l0.2-0.3l0.1-0.2l0.2-0.2l0.2-0.1l0.1-0.1l0.5-0.4l0.6-0.4l0.6-0.5
		l0.5-0.4l0.5-0.3l0.4-0.2l0.6-0.3l0.7-0.3l0.6-0.2l0.8-0.3l0.7-0.3l1.3-0.5l0.8-0.3l1-0.4l0.9-0.4l1.3-0.7l0.4-0.2l0.4-0.3l0.4-0.3
		l1-0.9l0.4-0.5l0.3-0.4l0.5-0.8l0.5-0.9l0.6-1.2l0.4-0.9l0.2-0.7l0.1-0.3l0.1-0.3l0.1-0.5l0.2-0.8l0.1-0.4l0.1-0.2l0.3-0.6l0.2-0.4
		l0.2-0.5l0.2-0.5l0.2-0.5l0.1-0.2l0-0.2l0-0.4l1.4,0l1.7,0l2.9,0l0.3,0l0.4,0L275,346.6z"/>
	<path id="Ruby_Hill" class="st0" d="M261.3,346.5l0,0.4l0,0.2l-0.1,0.2l-0.2,0.5l-0.2,0.5l-0.2,0.5l-0.2,0.4l-0.3,0.6l-0.1,0.2
		l-0.1,0.4l-0.2,0.8l-0.1,0.5l-0.1,0.3l-0.1,0.3l-0.2,0.7l-0.4,0.9l-0.6,1.2l-0.5,0.9l-0.5,0.8l-0.3,0.4l-0.4,0.5l-1,0.9l-0.4,0.3
		l-0.4,0.3l-0.4,0.2l-1.3,0.7l-0.9,0.4l-1,0.4l-0.8,0.3l-1.3,0.5l-0.7,0.3l-0.8,0.3l-0.6,0.2l-0.7,0.3l-0.6,0.3l-0.4,0.2l-0.5,0.3
		l-0.5,0.4l-0.6,0.5l-0.6,0.4l-0.5,0.4l-0.1,0.1l-0.2,0.1l-0.2,0.2l-0.1,0.2l-0.2,0.3l-0.1,0.4l-0.1,0.2l-0.1,0.4l-0.2,0.5l-0.1,0.3
		l-0.1,0.6l-0.2,0.4l-0.2,0.4L240,370l-0.1,0.3l0,0.1l0,0.1l0,0.2l0,0.4l0,0.2l0,0.2l-0.2,0.5l-0.1,0.3l-0.1,0.3l-0.1,0.2l-0.1,0.3
		l-0.1,0.4l-0.1,0.5l-0.1,0.6l-0.1,0.4l-0.1,0.4l-1,3.8l-1.1,3.6l-0.1,0.5l-0.1,0.5l0,0.2l-0.1,0.9l0,0.8l0.1,1l0,0.3l-1.2,0l-1.7,0
		l-4.6-0.1l-3.2,0l-2.6,0l-0.5,0l-1.2,0l-5.3-0.1l-0.6,0l-3,0l-2.9,0l-5.1-0.1l-1.3,0l-1.2,0l-2.5,0l-2.7,0l-3.3,0.1l-3.2,0l-3.2,0
		l-3.3,0l-3.3,0l-3.2,0l-2.9,0l-3.6,0l0-5l0-2.5l0-2.5l0-5l0-5l0-3.7l0-1.4l0-5l0-5l0-5.1l3.7,0l2.8,0l3.3,0l3.3,0l3.2,0l3.2,0
		l2.9,0l3.7,0l5,0l3.2,0l2.8,0l2.8,0l3.7,0l1.8,0l5.9,0l1.2,0l12.9,0l3.3,0l3.2,0l3.3,0l3.3,0l3.3,0l3.3,0l4.1,0L261.3,346.5z"/>
	<path id="Mar_Lee" class="st0" d="M170.6,346.3l0,5.1l0,5l0,5l0,1.4l0,3.7l0,5l0,5l0,2.5l0,2.5l0,5l-3.3,0l-3.2,0l-2.6,0l-4.1,0
		l-3.2,0l-3.1,0l-3.2,0l-3.2,0l-2.7,0l-2.6,0l-2.6,0l-3.1,0l-2.6,0l-3,0l-2.7,0l-2.8,0l-2.8,0l-2.8,0l-2.7,0l-2.6,0l-2.6,0l-2.6,0
		l-2.7,0l-2.9,0l-2.9,0l-2.9,0l-3.1,0l0,0l0-20.1l0-20h0l3.7,0l3.2,0l3.2,0l3.2,0l3.3,0l3.2,0l3.2,0l3.2,0l0.3-0.1l3,0l3.3,0l3.2,0
		l3.3,0l3.3,0l3.2,0l0.9-0.3l2.3-0.9l0.4-0.1l0.3,0l0.3,0l0.3,0l0.3,0l0.5,0.1l0.4,0.1l0.6,0.2l1.2,0.3l1.3,0.3l1.1,0.2l1.1,0.1
		l1.9,0.1l0.7,0l2.2,0l3.5,0l3.5,0l2.9,0l2.9,0L170.6,346.3z"/>
	<path id="Capitol_Hill" class="st0" d="M313.9,226.1l1.2,0l0,1.4l-0.1,3.2l0,4.2l0,4.8l0.1,4l0,4.6l0.1,4.4l0,3.8l0,5l-1.6,0
		l-1.6,0l-3.2,0l-3.2,0l-3.2,0l-3.4,0l-1.6,0l-1.6,0l-3.3,0l-1.7,0l-1.7,0l-1.7,0l-1.8,0l-3.5,0l-3.5,0l-3.5,0l0-5l0-3.8l0-4.4l0-5
		l0-3.9l0-4.4l-0.1-4.4l0.1-3.3l0-1.1l0-0.3l3.1,0l0.3,0.1l1.8,0l1.7,0l1.8,0l1.8,0l1.7,0l1.8,0l1.7,0l1.7,0l1.7,0l1.6,0l1.6,0
		l1.6,0l1.5,0l1.6,0l3.2,0l1.1,0l1.8,0l0.3,0l1.5,0l1.8,0L313.9,226.1z"/>
	<path id="North_Capitol_Hill" class="st0" d="M314,215.7l0,1.5l0,1.6l0,2.9l-0.1,4.5l-2.1,0l-1.8,0l-1.5,0l-0.3,0l-1.8,0l-1.1,0
		l-3.2,0l-1.6,0l-1.5,0l-1.6,0l-1.6,0l-1.6,0l-1.7,0l-1.7,0l-1.7,0l-1.8,0l-1.7,0l-1.8,0l-1.8,0l-1.7,0l-1.8,0l-0.3-0.1l-3.1,0
		l0-2.1l0-1.7l0-0.6l0-0.7l0-0.7l0.1-2.4l0-0.8l-0.1-4.1l0-0.6l0-1.1l0-1.3l0-0.7l0-1.4l0-0.8l0-1.1l0.3-0.2l0.3-0.3l3,0l1.2,0
		l0.3-0.2l0.3,0.1l0.3,0l0.4,0l0.4,0l0.4,0l0.2,0l0.3,0l1.5,0l0.8,0l1,0l1.3,0h0.5l1.8,0l1.7,0l1.7,0l3.3,0l3.2,0l1,0l0.4,0.1l0.1,0
		l1.8,1.5l1.5,1.1l1.4,1l1,0.8l3.8,3l2.2,1.7L314,215.7z"/>
	<path id="Civic_Center" class="st0" d="M275.1,225.9l0,0.3l0,1.1l-0.1,3.3l0.1,4.4l0,4.4l0,3.9l0,5l0,4.4l0,3.8l0,5l0,0.9l-0.3-0.2
		l-0.7-0.4l-0.8-0.4l-0.7-0.4l-0.6-0.4l-0.4-0.3l-0.1-0.1l-0.2,0l-0.3-0.1l-0.2-0.1l-0.3-0.3l-0.5-0.4l-0.3-0.2l-0.3-0.2l-0.2-0.1
		l-0.1-0.1l-0.1-0.1l-0.2-0.1l-0.3-0.2l-0.2-0.2l-0.2-0.3l-0.2-0.2l-0.1-0.1l-0.2-0.2l-0.2-0.2l-0.1-0.1l-0.5-0.6l-0.1-0.2l-0.2-0.2
		l-0.2-0.3l-0.2-0.3l-0.2-0.3l-0.3-0.3l-0.2-0.3l-0.3-0.4l-0.2-0.3l-0.4-0.4l-0.2-0.3l-0.2-0.3l-0.4-0.5l-0.3-0.3l-0.3-0.4l-0.2-0.3
		l-0.1-0.2l-0.2-0.3l-0.2-0.4l-0.2-0.3l-0.1-0.2l-0.2-0.3l-0.3-0.4l-0.4-0.5l-0.3-0.5l-0.2-0.3l-0.5-0.6l-0.3-0.4l-0.2-0.4l-0.3-0.3
		l-0.3-0.5l0,0l-0.2-0.3l-0.3-0.4l-0.2-0.3l-0.1-0.2l-0.2-0.2l-0.4-0.5l-0.2-0.2l-0.4-0.6l-0.1-0.2l-0.2-0.3l-0.2-0.3l-0.3-0.3
		l-0.2-0.3l-0.3-0.3l-0.1-0.2l-0.1-0.2l-0.2-0.2l-0.5-0.6l-0.2-0.3l-0.2-0.3l-0.3-0.3l-0.2-0.3l-0.4-0.5l-0.3-0.5l-0.3-0.4l-0.3-0.4
		l-0.3-0.3l-0.2-0.2l-0.2-0.3l-0.2-0.4l-0.2-0.2l-0.2-0.2l-1-1.4l-0.3-0.4l-0.3-0.3l-0.5-0.8l-0.5-0.7l-0.3-0.4l-0.2-0.2l-0.1-0.1
		l-0.3-0.4l-0.2-0.4l-0.5-0.5l-0.2-0.2l-0.1-0.1l-0.1-0.2l-0.1-0.2l-0.1-0.2l-0.1-0.2l-0.1-0.2l-0.1-0.2l-0.1-0.2l-0.2-0.2l-0.1-0.1
		l-0.1-0.2l-0.1-0.2l-0.1-0.2l-0.1-0.1l-0.1-0.2l-0.1-0.2l-0.1-0.1l-0.1-0.1l-0.2-0.2l-0.1-0.2l-0.1-0.1l-0.1-0.1l-0.1-0.2l-0.4-0.7
		l0.9,0l0.4,0l3.3,0l1.2,0l0.2,0l3.3,0l2.5,0l2.3,0l1.7,0l1.2,0l2.4,0l3.4,0l1,0l0.4,0l0.3-0.1l0.4-0.2l0.3-0.4l0.4-0.3l0.3-0.2
		l0.6-0.2l0.5-0.1l0.5,0l0.6,0.2l0,0l0.4,0.2l0.3,0.3l0.4,0.3l0.1,0l0.4,0.2l0.1,0.1l0.2,0.1l0.2,0.1l0.7,0.1L275.1,225.9z"/>
	<path id="CBD" class="st0" d="M275.1,205.8l0,1.1l0,0.8l0,1.4l0,0.7l0,1.3l0,1.1l0,0.6l0.1,4.1l0,0.8l-0.1,2.4l0,0.7l0,0.7l0,0.6
		l0,1.7l0,2.1l-0.3,0l-0.7-0.1l-0.2-0.1l-0.2-0.1l-0.1-0.1l-0.4-0.2l-0.1,0l-0.4-0.3l-0.3-0.3l-0.4-0.2l0,0l-0.6-0.2l-0.5,0
		l-0.5,0.1l-0.6,0.2l-0.3,0.2l-0.4,0.3l-0.3,0.4l-0.4,0.2l-0.3,0.1l-0.4,0l-1,0l-3.4,0l-2.4,0l-1.2,0l-1.7,0l-2.3,0l-2.5,0l-3.3,0
		l-0.2,0l-1.2,0l-3.3,0l-0.4,0l-0.9,0l-0.1-0.2l0,0l-0.2-0.3l-0.2-0.2l-0.1-0.1l-0.1-0.2l-0.1-0.1l0-0.1l0-0.1l-0.1-0.2l-0.1-0.2
		l-0.1-0.1l-0.1-0.1l-0.1-0.1l-0.1-0.2l0-0.1l0-0.1l0-0.1l-0.1-0.1l0-0.1l0,0l-0.5-0.9l-0.1-0.2l-0.1-0.3l-0.1-0.3l-0.1-0.2
		l-0.1-0.2l0-0.1l-0.3-0.6l-0.1-0.2l-0.1-0.2l-0.1-0.4l-0.1-0.3l-0.1-0.3l-0.1-0.3l-0.1-0.3l-0.1-0.3l-0.1-0.1l-0.1-0.2l-0.1-0.3
		l-0.1-0.2l-0.1-0.3l-0.1-0.2l-0.1-0.3l0-0.3l0-0.3l0-0.2l0-0.6l0-0.6l-0.1-0.6l0-0.4l-0.1-0.5l-0.1-0.5l0-0.3l0-0.3l0-0.5l0-0.1
		l0-0.4l0.8-0.6l3.3-2.5l3.4-2.6l3.3-2.6l3.4-2.6l3.3-2.6l3.3-2.6l3.4-2.6l2.4,1.9l2.4,1.8l2.4,1.9l1.2,0.9l1.2,0.9l1.9,1.5l0.4,0.4
		l0,1.9L275.1,205.8z"/>
	<path id="Union_Station" class="st0" d="M263.2,192.1l-3.4,2.6l-3.3,2.6l-3.3,2.6l-3.4,2.6l-3.3,2.6l-3.4,2.6l-3.3,2.5l-0.8,0.6
		l0-0.8l0-0.3l0.1-1.3l0-0.1l0-0.1l0-0.2l-0.1-0.2l-0.1-0.2l-0.2-0.5l-0.1-0.2l-0.1-0.1l-0.1-0.2l-0.1-0.2l-0.1-0.1L238,206
		l-0.1-0.3l-0.2-0.4l0,0l-0.1-0.3l-0.1-0.2l-0.2-0.3l-0.1-0.1l-0.3-0.6l-0.2-0.3l-0.3-0.4l-0.3-0.5l-0.2-0.2l-0.2-0.2l-0.5-0.5
		l-0.2-0.2l-0.4-0.3l-0.3-0.2l-0.4-0.3l-0.3-0.2l-0.6-0.4l-0.4-0.2l-0.4-0.2l-0.4-0.3l-0.3-0.3l-0.4-0.3l-0.2-0.1l-0.4-0.3l-0.6-0.5
		l-0.5-0.4l-0.5-0.3l-1.4-1l-0.5-0.4l-0.5-0.4l-0.3-0.3l-0.4-0.3l-1-0.7l-0.5-0.4l-0.3-0.3l-0.3-0.2l-0.4-0.3l-0.7-0.5l-0.5-0.4
		l-0.3-0.2l-0.2-0.1l-0.2-0.2l-0.5-0.4l-0.6-0.4l-0.4-0.3l-0.4-0.3l-0.4-0.3l-0.3-0.3l-0.2-0.1l-0.1-0.1l-0.4-0.4l-0.2-0.2l-0.1-0.1
		l-0.1-0.2l-0.1-0.2l-0.1-0.4l-0.1-0.4l-0.2-0.4l-0.2-0.5l-0.1-0.2l-0.1-0.4l0-0.3l0-0.2l0-0.2l0,0l1.7-1.7l1.2-1.4l0.4-0.4l0.5-0.6
		l0.2-0.3l0.3-0.4l0.1-0.2l0.2-0.3l0.2-0.2l0.3-0.4l0.4-0.5l0.2-0.2l0.2-0.3l0.2-0.3l0.2-0.3l0.1-0.2l0-0.2l0-0.2l0-0.2l0.1-0.3
		l0.2-0.3l0.1-0.2l0.1-0.1l0.3-0.3l0.9-1l0.2-0.2l0.6-0.5l0.4-0.3l0.5-0.5l0.3-0.4l0.4-0.5l0.1-0.2l0.2-0.3l0.2-0.3l0.2-0.3l0.3-0.2
		l0.3-0.2l0.3-0.2l0.4-0.2l0.4-0.3l0.7-0.5l3.5,1.8l0.3,0.2l1.2,0.6l1.4,0.7l2,1l0.8,0.5l0.8,0.6l2.7,2l3.3,2.7l1,0.8l2.5,2.1l2.7,2
		l1.2,0.9l1.2,0.9l1.2,1l1.1,0.9l1.2,1l1.1,0.9l1.3,0.9L263.2,192.1z"/>
	<path id="Stapleton" class="st0" d="M612,64.1L612,64.1l-0.1,0.4l0,3.7l0.1,6.7l0,5.1l0,4.1l0,2.4l0,0.5l0.1,9.4l0.1,6.8l0.1,5.2
		l0,0.4l0,4.7l0,4.8l0,0.5l0,4.5l0,0.5l0,2.7l0,0.3l0.2,0l8.1,0.7l3.8,0.3l4.9,0.4l8.9,0.8l7.9,0.7l5.2,0.5l2.3,0.2l8.3,0.7l2.8,0.2
		l5.5,0.5l8.6,0.7l3.2,0.3l8.8,0.8l8.7,0.8l1.8,0.2l6.3,0.5l3.3,0.3l6.2,0.5l0,0.3l0,9.2l-13,0l0,7.2l0,0.6l-2.5-0.6l-2.6-0.5
		l-2.7-0.5l-2.7-0.4l-2.7-0.2l-52-3.9l0,2.5l0.1,15.7l0.1,10.8l2.3,0.9l1.4-0.3l0.4,0.2l1.4-0.6l2.4,1.2l1.3,0.4l2.7,0.5l3.5,1.6
		l7.2,0.9l0.6,2.7l0.8,0.6l2.4,0l0,1.4l-91.8-0.1l0,20.2l-13.1,0l0,0l-3.2,0l-3.3,0l-3.3,0l-3.2,0l-3.3,0l-3.3,0l-3.2,0l-3.2,0
		l-6.6,0l-3.3,0l-3.4,0l0-6.6l0-3.3l-3.2,0l-3.3,0l-3.3,0l-3.3,0l0-3.3l0-3.3l0.1-3.7l0-9.1l-0.2-1.1l0-5l0-3.3l0-1.6l0-5.1l-0.1-5
		l0-3l0-2l0-1.6L508,148l0-0.8l0.1-2.2l0-5.1l0-1.9l0-2.7l0-1.6l0-0.3l0-0.4l-0.1-0.4l0-0.2l0-0.4l-0.2-1.1l-0.1-0.4l0-0.4l0-0.3
		l0-0.2l0.2-1.1l0-3.6l0.1-2.2l0.2-0.2l-0.2-0.1l0-2.1l0-0.1l0-0.2l0-0.3l0-0.2l0-0.5l0.1-1.4l0-0.4l0-0.1l0-5.9l0-3.8l0.1-2.7
		l-0.1-20.2l-0.1-20.2l5.9,0l0-5l6.5,0l0,5l13.6,0l26.5,0l0.5,0l0.1-20.2l0.1-19.8l25.2,0l25.2,0l0.1,19.8l0.1,20.2L612,64.1z"/>
	<path id="City_Park_West" class="st0" d="M351.8,226.2l-1.7,0l-1.7,0l-1.7,0l-1.7,0l-1.7,0l-1.7,0l-1.8,0l-1.8,0l-1.7,0l-1.7,0
		l-1.7,0l-1.7,0l-1.7,0l-1.7,0l-3.4,0l-1.3,0l-0.5,0l-1.3,0l-1.4,0l-1.6,0l-0.7,0l-1.7,0l-0.7,0l-1.2,0l0.1-4.5l0-2.9l0-1.6l0-1.5
		l0-2.9l0-0.7l0.1-2.4l0.1-2.8l0-1.6l0-1.6l-0.1-0.7l0-3.1l0-3.5l1.7,0l1.7,0l1.7,0l1.7,0l1.7,0l1.7,0h1.7l1.7,0l1.7,0l1.7,0h1.7
		l1.7,0l1.7,0l1.7,0l1.7,0l1.8,0l1.7,0l1.7,0l1.7,0l1.7,0l1.7,0l1.7,0l0,3.5l0,3.5l0,3.5l0,6l0,4.2l0,4.6L351.8,226.2z"/>
	<path id="Sun_Valley" class="st0" d="M195,216.8l-0.2,0.5l-0.2,0.4l-0.1,0.2l-0.1,0.4l-0.3,0.9l-1.3,3.5l-0.4,1.1l-0.3,0.7
		l-0.2,0.4l-0.2,0.6l0,0l-0.2,0.7l-0.8,2.1l-0.1,0.2l-0.1,0.3l-0.1,0.3l-0.1,0.2l-0.1,0.6l-0.1,0.6l0,0.6l0,0.5l0,0.3l0.1,0.5
		l0.1,0.3l0.3,0.8l0.5,1.1l0.7,1.5l0.6,1.2l0.2,0.4l0.2,0.8l0.2,0.9l0.1,1.4l0,2.6l0,1.4l0,1.1l0,2.4l0.1,2.5l0,1.5l0,2.3l0,0.2
		l0.1,0.2l0.1,0.3l0.2,0.4l0.3,0.6l0.2,0.3l0.4,0.5l0.4,0.5l0.9,1l0.3,0.4l0.2,0.3l0.3,0.6l0.3,0.7l0.1,0.4l0,0.1l0.1,0.4l0,0.5
		l0,0.5l0,0.4l-0.1,0.8l0,0.8l0,0l-0.1,0.8l0,0.3l-0.1,0.5l0,0l-0.1,0.5l-3,0.2l-2.2,0.1l-1,0.1l-0.7,0l-1.1,0.1l-2.1,0l-2.2-0.1
		l-4.7-0.3l-1-0.1l-1.7,0l-2.7,0l-2,0l-0.8,0l-0.7,0l0-0.4l0-0.7l0-4.4l0-2.4l0-2.3l0-0.3l0-0.3l0-2.4l0-2.5l0-5l0-2.5l0-2.4
		l-0.1-2.6l0-2.5l0.1-4l-0.2-5l0-0.7l0-1l0-0.7l0-4.8l0-0.9l0-3.4l0-3.3l0-3.3l4.4,0l0-2.1l0-1.3l4.3,0l4.3,0l0.1,2.1l0,1.2l2.4,0
		l1.8,0l1.8,0l0,0.1l0.3,1.2l0.4,1l0.6,1.1l0.8,1.1l0.4,0.5l1.6,1.6l1.4,1.5L195,216.8z"/>
	<path id="Valverde" class="st0" d="M196.4,266.5l-0.1,1.1l0,0.3l0,0.4l0,0.4l0,0.2l0.1,0.3l0.2,0.3l0.1,0.2l0,0l0.4,0.5l0.3,0.4
		l0.3,0.3l0.3,0.2l1.7,0.9l0.5,0.3l0.8,0.5l0.4,0.3l1.9,1.1l0.6,0.3l0.2,0.2l0.2,0.2l0.2,0.2l0.3,0.2l0.4,0.2l0.3,0.1l0.5,0.2
		l0.6,0.2l3.3,0.7l1.3,0.3l0.6,0.2l0.4,0.1l0.3,0.1l0.9,0.5l0.7,0.5l0.5,0.4l1.2,1.2l0.8,0.8l1.2,1.2l2.6,2.6l0.3,0.3l0.5,0.6
		l0.2,0.3l0.3,0.3l0.2,0.2l0.3,0.2l0.3,0.2l0.3,0.2l0.4,0.2l1,0.6l0.8,0.5l1.2,0.7l1.3,0.8l1.3,0.8l1,0.6l1.1,0.7l0.3,0.2l0.7,0.6
		l0.8,0.7l0.5,0.4l0.2,0.3l0.3,0.4l0.9,1.1l0.2,0.3l0.4,0.6l0.2,0.3l0.3,0.8l0.4,1.1l0.2,0.4l0.6,1.2l0.5,1l0.4,0.8l0.8,1.9l0.2,0.5
		l0.3,0.7l0.1,0.3l0.2,0.4l0.4,0.6l-1.4,0l-2.5,0.1l-6.4-0.1l-6.6,0l-6.6-0.1l-6.5,0l-9.8,0l-3.3,0l-1.7,0l-1.7,0l-1.6,0l-1.6,0
		l-1.6,0l-1.4,0l-1.9,0l-1.4,0l-1.8,0l-1.5,0l-1.7,0l-1.6,0l-3.2,0l-3.4-0.1l0-5.1v-1.1l0-4l0-0.4l0-2.1l0-2.5l-0.1-2.5l0-1.7l0-0.8
		l0-2.5l0-1.1l0-1.4l0-2.5l0-0.5l0-2l0-2.3l0-0.1l0-1.5l0-2.9l0-1.4l0-1.3l0-0.2l0.7,0l0.8,0l2,0l2.7,0l1.7,0l1,0.1l4.7,0.3l2.2,0.1
		l2.1,0l1.1-0.1l0.7,0l1-0.1l2.2-0.1L196.4,266.5z"/>
	<path id="Villa_Park" class="st0" d="M170.2,235.7L170.2,235.7l0,2.5l0.1,2.6l0,2.4l0,2.5l0,5l0,2.5l0,2.4l0,0.3l0,0.3l0,2.3l0,2.4
		l0,4.4l0,0.7l0,0.4l-0.7,0l-4,0l-5.6,0l-0.2,0l-5.5,0l-2.2,0l-1.2-0.1l-0.3,0l-1.3-0.1l-0.4,0l-0.3,0l-1.2-0.1l-1.2,0l-2.5,0
		l-6.4-0.1l-5.8,0h0l-0.9,0l-0.9,0l-9.4,0l-11,0l-0.7,0l-0.9-0.1l-1.1-0.1l-1.6-0.1l-0.4,0l-7,0l-5.1,0l0-0.1l0-20.1l-3.3,0l0-1.5
		l-0.7,0l0-0.2l-0.9,0l0,1.7l-1.6,0l0-5l6.5,0l0,0.1l0.8-0.1l0.1,0l0.1,0l0.1,0l0.1,0l0.1,0l0.1,0l0.2,0l0.1,0l0.1,0l0.1-0.1l0.1,0
		l0.1,0l0,0l0,0l0.1,0l0.1,0l0.2,0l0.1,0l0.1,0l0.1,0l0.1,0l0.1,0l0.1,0l0,0l0.1,0l0.1,0l0.1,0l0.1,0l0.2,0l0.2,0l0.2,0l0.1,0l0.1,0
		l0.1,0l0.1,0l0.1,0l0,0l0.1-0.1l0.1,0l0.1,0l0.1,0l0,0l0.2-0.4l0.1-0.1l0-0.1l0-0.1l0-0.1l0.1-0.1l0.1,0l0.1,0l0.1,0l0.1,0l0.1,0
		l0,0l0-0.1l0-0.1l0-0.1l0,0l0.1,0l0.1,0l0.1,0l0.1,0.1l0.1,0.1l0.1,0.1l0.1,0l0.1,0l0.2,0l0.1,0l0.1,0l0.1,0l0.1,0l0.1,0l0.1,0
		l0.1,0.1l0.1,0.1l0,0.1l0.1,0.1l0.1,0.1l0,0l0,0l0.1,0l0.2,0l0.3,0l0.2,0l0.2-0.1l0-0.1l0-0.1l0.1-0.1l0.1,0l0.1,0l0.1,0l0.1,0
		l0.1,0l0.1,0l0.1,0l0.2,0l0.1,0l0.1,0l0.1,0l0,0l0,0l0.1,0l0.1,0l0.1,0l0.1,0l0.1,0l0.1,0l0.1,0l0.1,0l0.1,0l0.1,0l0.1,0l0.1,0l0,0
		l0,0l0-0.1l0,0l0.1-0.1l0.1-0.1l0.1-0.1l0.1,0l0.1,0l0.1,0l0.1,0.1l0,0.1l-0.1,0.1l0,0.1l0,0.1l0,0.1l0,0.1l0,0l0,0.1l0,0l0,0
		l0.1,0l0.1,0l0.1,0l0.1,0l0.1,0l0.4-0.2l0.1,0l0.1,0l0.1,0l0.1,0l0.1,0l0.1,0l0.1,0l0.1,0l0.1,0l0.1,0l0,0l0,0l0,0l0,0l0.1,0l0.1,0
		l0.1,0l0.1,0l0.1,0l0.1,0l0.1,0l0.1,0l0.1,0l0.1,0l0.1,0l0.1,0l0.1,0l0.1,0l0.1,0l0.1,0l0.1,0l0.1,0l0.1,0l0.1-0.1l0,0l0.1,0l0.1,0
		l0.1,0l0.1,0l0.1,0l0,0l0,0l0.1,0l0,0l0,0l0.1,0l0.1,0l0,0l0.1,0l0.1,0l0.1,0l0.1,0l0,0l0,0l0,0.1l0,0l0,0l0,0.1l0.1,0l0.1,0l0.1,0
		l0.1,0l0.1,0.1l0.1,0.1l0.1,0l0.1,0.1l0.1,0.1l0.1,0.1l0.1,0.1l0.1,0.1l0.1,0.1l0.1,0l0.1,0l0.2,0l0.1,0l0.2,0l0.1,0l0.1,0l0.1,0
		l0.1,0l0.1,0l0.1,0l0.1,0l0.1,0l0.1,0l0,0l0.1,0l0,0l0,0l0,0l0.1,0l0.1,0l0,0l0,0l0,0l0,0l0.1,0l0.1,0l0,0l0,0l0.1-0.1l0.1,0l0.1,0
		l0.1,0l0.1,0l0.1,0l0.1,0l0.1,0l0,0l0.1,0l0.1,0l0,0l0.1,0l0,0l0.1,0l0.1,0l0.1,0l0.1,0l0.1,0l0.1,0l0.1,0l0.1,0l0.1,0l0.1,0l0.1,0
		l0.1,0l0.1,0l0.3,0l0.2,0l0.2,0l0.1,0l0.1,0l0.1,0l0.1,0l0.1,0l0.1,0l0.1,0l0.1,0l0,0l0,0l0,0l0,0l0.1,0l0.1,0l0.1,0l0.1,0l0.1,0
		l0,0l0.1,0l0.1,0l0.1,0l0.1,0l0.1,0l0.1,0l0.1,0l0.2,0l0.1,0l0.1,0l0.1,0l0.1,0l0.1,0l0.1,0l0.1,0l0.1,0l0.1,0l0.1,0l0.1,0l0.1,0
		l0.1,0l0.1,0l0.1,0l0.1,0l0.1,0l0.1,0l0.1,0l0,0l0.1-0.1l0.1-0.1l0.1-0.1l0-0.1l0,0l0,0l0,0l0,0l0,0l0,0l0,0l0,0l0,0l0,0l0,0l0.1,0
		l0.1,0l0.4,0l0.1,0l0.1,0l0.1,0l0.1,0l0.1,0l0.1,0l0.1,0l0.1,0l0.2,0l0.3,0l0.2,0l0.4,0l0.3,0l0.2,0l0.2,0l0.1,0l0.2,0l0.2,0l0.1,0
		l0.2,0l0.2,0l0.1,0l0.2,0l0.2,0l0.1,0l0.1-0.1l0.1-0.1l0.1,0l0.1,0l0.1,0l0.1,0.1l0.1,0l0.2,0.2l0.1,0.1l0.1,0.1l0.1,0.2l0.1,0.1
		l0,0.1l0.1,0.1l0.1,0.1l0.3,0.1l0.4,0.1l0.2,0l0.2,0l0.1,0l0.2,0l0.2,0l0.2,0l0.2,0l0.2,0l0.1,0l0.1,0.1l0.1,0l0.1,0l0.1,0l0.2,0
		l0.2,0l0.2,0l0.2,0.1l0.1,0.1l0.1,0.1l0.1,0.1l0.1,0l0.1,0l0.1,0l0.2,0l0.2,0l0.1,0l0.2,0l0.3,0l0.5,0l0.1,0l0.1,0l0.1,0l0.1,0.1
		l0.1,0l0.1,0l0.2,0l0.3,0l0.5,0.1l0.1,0l0.1,0l0.1,0l0.1,0l0.1,0l0.1,0l0.1,0l0.1,0l0.1,0l0.1,0l0.1,0l0.1,0l0.1,0l0.1,0l0.1,0.1
		l0.1,0.1l0.1,0.1l0.1,0l0.1,0l0.1,0l0.1,0.1l0.1,0l0.1,0l0.1,0.1l0.1,0l0.1,0l0.1,0l0.1,0l0.1,0l0.1,0l0.1,0l0.2-0.1l0.1,0l0.1-0.1
		l0,0l0-0.1l0.1-0.1l0.1-0.1l0.1,0l0.1,0l0.1,0l0,0l0.1,0l0,0l0.1,0l0.1,0l0.1,0l0.1,0l0.1,0l0,0l0,0l0,0.1l0,0l0.1,0l0.1,0l0.1,0
		l0.1,0l0.1,0l0.1,0l0.2-0.2l0.1-0.1l0.1,0l0.1,0l0.1,0l0.1,0l0.1,0l0.1,0l0.1,0l0.1,0l0.1,0l0.1,0l0.1,0l0.1,0l0.1,0l0.1,0l0.1,0
		l0.2,0l0.2-0.1l0.1-0.1l0.2-0.1l0.1-0.1l0.1-0.1l0.1-0.1l0.1-0.1l0-0.1l0-0.1l0.1-0.1l0.1-0.1l0.1-0.1l0.1,0l0.1,0l0.1,0l0.1,0
		l0.1,0l0.2,0l0.2,0l0.1-0.1l0.1-0.1l0.2-0.2l0.1-0.1l0.1,0l0.1,0l0.1,0l0.2-0.1l0.2-0.1l0.2-0.1l0.2-0.1l0.2-0.1l0.3-0.2l0.3-0.2
		l0.3-0.1l0.3-0.1l0.3-0.1l0.2-0.1l0.3-0.1l0.2,0l0.2,0l0.3,0l0.3,0l0.3,0l0.2,0l0.3,0.1l0.2,0.1l0.3,0.1l0.3,0.1l0.1,0l0.1,0l0.2,0
		l0.3,0l0.3,0l0.4,0l0.1,0l0.1,0l0.2,0l0.1,0l0,0l0.1,0l0.1,0l0.1,0.1l0.1,0.1l0.8,0.4l0.3,0.2l0.1,0l0.1,0l0.1,0l0.1,0l0.1,0l0,0
		l0.8,0l0.2,0l0.2,0l0.1,0l0.1,0l0.2-0.1l0.2-0.1l0.2-0.1l0.1-0.1l0.1-0.1l0.1-0.1l0.1,0l0,0l0,0l0.4-0.3l0,0l0.2-0.1l0,0l0.1-0.1
		l0.1,0l0.1,0l0.1,0l0.1,0l0.1,0l0.1,0l0,0l0.1,0l0.2,0l1-0.2l0,0l0.2,0l0.2,0l1-0.1l0.3,0l0.2,0l0.2,0l0.2,0l0,0l0.2,0l0.1,0
		l0.5-0.1l0.2,0l0.6-0.1l0.1,0l0,0l0.5-0.1l0.1,0l0.1,0l0.3-0.1l0.8-0.3l0.1,0l0.1,0l0.1,0l0.2,0h0l0,0l0.3-0.1l0.2,0l0.2,0l0.2,0
		l0.1,0l0.5-0.1l0.3,0l0.2,0l0.1,0l0.2,0l0.1,0l0.1,0l0.2,0l0.1,0l0.2,0l0.3,0l0.8-0.2l0.7-0.2l0.2-0.1l0.2,0l0.2,0l0,0l0.2,0l0.1,0
		l0.1,0l0.1-0.1l0.1,0l0.1-0.1l0.8-0.4l0.2-0.1l0.1-0.1l0.3-0.2l0.3-0.2l0.1,0L170.2,235.7z"/>
	<path id="Five_Points" class="st0" d="M318.1,142.1l-4,3.1l0,2.8l0,0.7l0,2l0,0.6l0,1.3l0.1,1.2l0,0.6l0,0.2l0,1.7l0,1.8l0,0.8
		l0,1.1l0,1.5l0,2.3l0,1l0,0.7l0,1.7l0,1.1l0,0.9l0,2.5l-0.1,3.5l0,1.4l0,2.1l0,1.7l0,1.8l0,1.2l0,0.6l0,0.5l0,1.1l0,3.7l0,3.5
		l0,3.5l0,3.5l0,3.1l0.1,0.7l0,1.6l0,1.6l-0.1,2.8l-0.1,2.4l0,0.7l0,2.9l-1.7-1.3l-2.2-1.7l-3.8-3l-1-0.8l-1.4-1l-1.5-1.1l-1.8-1.5
		l-0.1,0l-0.4-0.1l-1,0l-3.2,0l-3.3,0l-1.7,0l-1.7,0l-1.8,0H287l-1.3,0l-1,0l-0.8,0l-1.5,0l-0.3,0l-0.2,0l-0.4,0l-0.4,0l-0.4,0
		l-0.3,0l-0.3-0.1l-0.3,0.2l-1.2,0l-3,0l-0.3,0.3l-0.3,0.2l0-2.4l0-1.9l-0.4-0.4l-1.9-1.5l-1.2-0.9l-1.2-0.9l-2.4-1.9l-2.4-1.8
		l-2.4-1.9l-1.3-0.9l-1.3-0.9l-1.1-0.9l-1.2-1l-1.1-0.9l-1.2-1l-1.2-0.9l-1.2-0.9l-2.7-2l-2.5-2.1l-1-0.8l-3.3-2.7l-2.7-2l-0.8-0.6
		l-0.8-0.5l-2-1l-1.4-0.7l-1.2-0.6l-0.3-0.2l-3.5-1.8l0.4-0.3l0.1-0.1l0.2-0.2l0.1-0.1l0.1,0l0.4-0.1l0.4-0.1l0.2,0l0.5-0.2l0.4-0.2
		l0.4-0.2l0.3-0.1l0.4-0.1l0.3-0.1l0.4,0l0.4,0l0.4,0l0.5-0.1l0.5-0.1l1.1-0.3l1.2-0.4l0.6-0.2l0.6-0.3l0.4-0.2l0.3-0.2l0.4-0.2
		l0.4-0.3l0.2-0.1l0.4-0.2l0.2-0.1l0.1,0l0.1,0l0.3-0.1l0.3-0.1l0.4-0.1l0.2-0.1l0.3-0.1l0.6-0.2l0.3-0.1l0.3-0.2l0.3-0.2l0.3-0.1
		l0.4-0.1l0.2,0l0.4,0l0.2,0l0.3,0l0.5-0.1l0.5-0.1l0.6-0.2l0.5-0.2l0.6-0.3l0.9-0.4l0.5-0.2l0.2-0.1l0.3-0.2l0.4-0.3l1.4-1.1
		l1.3-1.2l0.4-0.4l0.3-0.3l0.4-0.3l0.5-0.3l0.7-0.5l0.5-0.4l0.3-0.3l0.4-0.3l0.4-0.2l0.8-0.5l0.4-0.2l0.7-0.3l0.5-0.2l0.5-0.2
		l0.4-0.1l0.8-0.2l1.1-0.3l0.3-0.1l0.3-0.1l0.3,0l2.8-0.3l0.6-0.1l0.9-0.2l0.7-0.2l0.4-0.1l3-0.8l0.3-0.1l2.7-0.8l3.1-1l0.3-0.1
		l2-0.9l0.5-0.3l0.2-0.2l0.4-0.4l0.3-0.3l0.2-0.3l0.4-0.7l0.4-0.6l0.6-1l0.4-0.6l0.3-0.4l0.2-0.2l0.3-0.4l0.9-1.1l1.2-1.4l0.5-0.6
		l1.4-1.7l0.4-0.4l0.9-1.1l0.4-0.6l1.7-2.1l0.3-0.4l0.6-0.7l0.2-0.3l0.4-0.5l0.3-0.4l0.2-0.3l0.3-0.3l0.2-0.3l0.5-0.5l0.5-0.5
		l0.2-0.2l0.3-0.3l0.4-0.4l0.2-0.3l0.4-0.4l0.3-0.4l0.2-0.3l0.3-0.5l0.3,0.3l0.7,0.6l2.4,1.9l2.4,1.9l1.2,0.9l1.2,0.9l1.2,0.9
		l1.2,0.9l2.4,1.9l2.4,1.9l1.2,0.9L318.1,142.1z"/>
	<path id="Globeville" class="st0" d="M326.9,84.5l-0.2,0.1l-1,0.7l-0.5,0.3l-0.5,0.3l-0.6,0.4l-0.7,0.4l-0.5,0.3l-0.4,0.4l-0.6,0.4
		l-0.6,0.4l-2.6,1.8l-1.6,1.3l-1.4,1.1l-2.6,1.8l-0.3,0.2l-0.8,0.4l-0.2,0.1l-0.3,0.2l-0.2,0.2l-0.4,0.3l-0.3,0.3l-0.4,0.3l-0.3,0.3
		l-0.3,0.3l-0.3,0.3l-0.3,0.4l-0.1,0.3l-0.2,0.3l-0.2,0.4l-0.1,0.3l-0.1,0.5l0,0.6l0,0.2l0,0.3l0,0.4l0,0.4l0,0.6l0,0.5l0,0.4l0,0.5
		l-0.1,0.6l-0.1,0.6l-0.1,0.5l-0.1,0.2l-0.2,0.7l-0.2,0.6l-0.3,0.6l-0.3,0.6L307,108l-0.1,0.2l-0.1,0.3l-0.2,0.5l-0.1,0.4l-0.2,0.3
		l-0.1,0.2L306,110l-0.3,0.1l-0.1,0.1l-0.2,0.1l-0.2,0.2l-0.2,0.3l-0.2,0.3l-0.1,0.3l-0.1,0.3l-0.1,0.2l-0.3,0.4l-0.3,0.4l-0.2,0.3
		l-0.1,0.2l-0.3,0.4l-0.5,0.8l-0.2,0.4l-0.2,0.4l-0.1,0.2l-0.3,0.4l-0.1,0.1l-0.3,0.5l-0.1,0.1l-0.1,0.2l-0.2,0.6l-0.3,0.7l0,0.3
		l0,0.4l0,0.7l0.1,0.7l0.2,0.9l0.2,1l0.1,0.4l0,0.3l0,0.3l0.1,1l0,0.5l0,0.3l0,0.1l0,0.2l-0.1,0.3l-0.1,0.3l-0.1,0.3l-0.5,0.8
		l-0.3,0.4l0,0.1l-0.3,0.6l-0.2,0.4l-0.3,0.5l-0.2,0.3l-0.3,0.4l-0.4,0.4l-0.2,0.3l-0.4,0.4l-0.3,0.3l-0.2,0.2l-0.5,0.5l-0.5,0.5
		l-0.2,0.3l-0.3,0.3l-0.2,0.3l-0.3,0.4l-0.4,0.5l-0.2,0.3l-0.6,0.7l-0.3,0.4l-1.7,2.1l-0.4,0.6l-0.9,1.1l-0.4,0.4l-1.4,1.7l-0.5,0.6
		l-1.2,1.4l-0.9,1.1l-0.3,0.4l-0.2,0.2l-0.3,0.4l-0.4,0.6l-0.6,1l-0.4,0.6l-0.4,0.7l-0.2,0.3l-0.3,0.3l-0.4,0.4l-0.2,0.2l-0.5,0.3
		l-2,0.9l-0.3,0.1l-3.1,1l-2.7,0.8l-0.3,0.1l-3,0.8l-0.4,0.1l-0.7,0.2l-0.9,0.2l-0.6,0.1l-2.8,0.3l-0.3,0l-0.3,0.1l-0.3,0.1
		l-1.1,0.3l-0.8,0.2l-0.4,0.1l-0.5,0.2l-0.5,0.2l-0.7,0.3l-0.4,0.2l-0.8,0.5l-0.4,0.2l-0.4,0.3l-0.3,0.3l-0.5,0.4l-0.7,0.5l-0.5,0.3
		l-0.4,0.3l-0.3,0.3l-0.4,0.4l-1.3,1.2l-1.4,1.1l-0.4,0.3l-0.3,0.2l-0.2,0.1l-0.5,0.2l-0.9,0.4l-0.6,0.3l-0.5,0.2l-0.6,0.2l-0.5,0.1
		l-0.5,0.1l-0.3,0l-0.2,0l-0.4,0l-0.2,0l-0.4,0.1l-0.3,0.1l-0.3,0.2l-0.3,0.2l-0.3,0.1l-0.6,0.2l-0.3,0.1l0.1-16.5l0-3.1l0-0.4
		l0-0.2l0-3.1l0-3.4l0-3.5l0.1-3.5l0-3.5l0-2.9l0-5l0.1-11.7l0.1-23.5l3.2,0l10.4,0l0-2.8l7.1,0l1.1,1.5l0,1.4l7.6,0l3.2,0l0-2.3
		l1.6,0l0,0.5l1.6,0l0,1.7l19.5,0l0-2.3l1.3,0l0,2.3l4.8,0l0-3.8l8,0.1l0-2.1l0-2.5l-4.5,0l0-4.1l0-0.3l9.8,0l0-1.3l-1.4,0l0-6
		l8.1,0.1l0.3,0l0,7.3l0,6.8l0.7,0l0.1-0.2l2.3,0l0,0.1l-0.4,1.1l-0.3,0.5l-0.4,2.2l-1,0l-0.4,0.4l-0.5,0.4l-0.4,0.3l0,0.1
		L326.9,84.5L326.9,84.5z"/>
	<path id="Virginia_Village" class="st0" d="M439.4,346.6L439.4,346.6l0.1,0l0.4,0l0.3,0l0.2,0l0.4-0.1l0.3-0.1l0.2,0l0.3,0l0.3,0
		l2.1,0l1.6,0l1.8,0l2.7,0l0.5,0l0.3,0l0.2,0l0.3,0l0.3-0.1l1.2-0.1l0,0l0.1,0.1l0.1,0.1l0.3,0.1l0.2,0.1l0.3,0l0.4,0.1l0.1,0l0.1,0
		l0.1,0.1l0.1,0.1l0.1,0.1l0.1,0.1l0.2,0.1l0.1,0.2l0.1,0.1l0.3,0.1l0,0l0.2,0.1l0.7,0.1l0.1,0.1l0.2,0.1l0.2,0.1l0.3,0l0.2,0
		l0.2,0.1l0.3,0.2l0.2,0.1l0.1,0.1l0.3,0.3l0.3,0.3l0.2,0.1l0.1,0.1l0.2,0.2l0.1,0.2l0.3,0.2l0.2,0.1l0.2,0.1l0.6,0.2l0.4,0.1
		l0.3,0.1l0.3,0.1l0.3,0.1l0.3,0.1l0.3,0.2l0.3,0.2l0.3,0.2l0.2,0.2l0.3,0.2l0.3,0.1l0.4,0.2l0.3,0.1l0.3,0.1l0.1,0.1l0.2,0.1
		l0.2,0.2l0.1,0.1l0.6,0.6l0.2,0.2l0.1,0.1l0.3,0.2l0.2,0.1l0.1,0.1l0.1,0.1l0.3,0.1l0.3,0.1l0.4,0.1l0.2,0l0.2,0l0.1,0.1l0.1,0.1
		l0.1,0.1l0.1,0.2l0.1,0.2l0.1,0.2l0.3,0.3l0.2,0.2l0.1,0.1l0.1,0.1l0.2,0.1l0.1,0.1l0.2,0.1l0.1,0.1l0.2,0.1l0.3,0.1l0.3,0.1
		l0.2,0.1l0.2,0.2l0.1,0.1l0.1,0.2l0.1,0.1l0.1,0.1l0.3,0.1l0.2,0.1l0.2,0.1l0.1,0.1l0.1,0.1l0.2,0.1l0.1,0.1l0.1,0.1l0.2,0.2
		l0.2,0.2l0.2,0.1l0.2,0.1l0.2,0.1l0.2,0l0.4,0l0.3,0l0.2,0l0.3,0.1l0.3,0.1l0.2,0.1l0.3,0.2l0.2,0.1l0.3,0.1l0.2,0.1l0.2,0.1
		l0.3,0.1l0.2,0.1l0.3,0.2l0.1,0.1l0.2,0.2l0.1,0.1l0,0.1l0.1,0.1l0.2,0.2l0.2,0.2l0.1,0.1l0.3,0.2l0.1,0l0.2,0.1l0.3,0.1l0.1,0.1
		l0.2,0.1l0.2,0.1l0.3,0.2l0.4,0.2l0.5,0.2l0.1,0l0.2,0l0.2,0.1l0.3,0.1l0.2,0.1l0.2,0.1l0.2,0.1l0.2,0.1l0.2,0.1l0.3,0.1l0.2,0.1
		l0.4,0.1l0.3,0.1l0.2,0.1l0.2,0.1l0.2,0.1l0.1,0.1l0.1,0.1l0.1,0.2l0.1,0.2l0.1,0.1l0.1,0.1l0.3,0.1l0.1,0l0.1,0l0.3,0.1l0.2,0.1
		l0.2,0.1l0.3,0.1l0.2,0.1l0.2,0.1l0.2,0.1l0.2,0.1l0.2,0.1l0.2,0.1l0.3,0.2l0.2,0.1l0.1,0.1l0.1,0.1l0.1,0l0.1,0l0.1,0l0.1,0l0,0
		l0.2,0l0,0l0.2,0.1l0.1,0.1l0.1,0.1l0.1,0.1l0.1,0.1l0.1,0.2l0,0.1l0,0.2l0,0.2l0.1,0.2l0.1,0.2l0.2,0.1l0.1,0l0.2,0l0.3,0l0.3,0.1
		l0.2,0.1l0.2,0.2l0.1,0.2l0.1,0.1l0.1,0.1l0.1,0.1l0.2,0.1l0.1,0l0.2,0.1l0.1,0.1l0.2,0.1l0.2,0.1l0.1,0.1l0.1,0.1l0.2,0.1l0.2,0.1
		l0.1,0.1l0.3,0.2l0.2,0.1l0.3,0.1l0.3,0.1l0.2,0.1l0.2,0.1l0.1,0l0.2,0l0.4,0l0.2,0l0.2,0l0.2,0l0.3,0.1l0.1,0.1l0.1,0.1l0.1,0.1
		l0.1,0.1l0.1,0.2l0.1,0.1l0.1,0.2l0.1,0.1l0.1,0.1l0.2,0.1l0.4,0.1l0.2,0l0.2,0.1l0.2,0.1l0.2,0.2l0.2,0.1l0.2,0.1l0.2,0.1l0.3,0.1
		l0.2,0.1l0.3,0.2l0.2,0.1l0.2,0.1l0.3,0.1l0,0l0.2,0l0.2,0l0.3,0.1l0.1,0.1l0.1,0.1l0,0.1l0.1,0.2l0.1,0.2l0.1,0.1l0.2,0.1l0.1,0.1
		l0.1,0.1l0.1,0.1l0.2,0.2l0.1,0.1l0.3,0.2l0.2,0.1l0.1,0l0.2,0.1l0.2,0l0.1,0l0.1,0l0.1,0.1l0.1,0.1l0.1,0.1l0.1,0.1l0.1,0l0.2,0.1
		l0.1,0l0.1,0l0.1,0.1l0.1,0.1l0.1,0.1l0.1,0.1l0.2,0.1l0.2,0l0.2,0.1l0,1.6l0,0.3l-4.4-2.6l-0.2,0l0,5.2l1.6,0l0,4.9l0,5l-9.7,0
		l0,1.3l1.5,0l1.6,0l0,2.8l2,0.7l0.4,0.1l-0.4,0.1l-0.1,0l-0.3,0l-0.5,0l-4.5,0l-12.8,0l-8.7,0l-7.9,0l-6.1,0l-3.6,0l-3.2,0l-1.3,0
		l-3.6,0l-0.7,0l-15.1,0l-2,0l-3.9,0l-0.7,0l-1.1,0l-0.5,0l-0.2,0l0,0l0,0l-0.4-0.4l-0.3-0.4l-1-1.2l-1.8-2.1l-1-1l-1-0.9l-0.8-0.7
		l-1.3-1l-0.7-0.4l-0.7-0.5l-1.7-1l-1.3-0.7l-1.5-0.6l-0.8-0.3l-1.1-0.4l-2.1-0.6l-0.5-0.1l-0.7-0.2l0-0.2l0-0.2l0-0.8l0-2.8
		l-0.1-1.3l0-2.2l0.1-5l0.1-5.1l-0.1-5l0.1-5l0-5l0,0l0.2,0l0-1.8l2.9,0l0,0.8l0,1l9,0l0-5l-0.4,0l0-3.5l1.4,0l0,3.5l5.1,0l0.2,0v0
		l6.3,0L439.4,346.6L439.4,346.6z M487.4,387l0,6.1l7.5,0l0-1.1l0-5L487.4,387z"/>
	<path id="Windsor" class="st0" d="M508,341.4L508,341.4l-0.1-3.3l0-1.2l0-0.5l0.1-9.9l0-10.1l0-1.6l0-1.3l0-0.1l0-3l0-3.3l0-0.8
		l0-0.4l0.4,0.2l4.6,0l24.4,0l1,0.1l0.5,0.1l0.7,0.2l0.7,0.3l0.8,0.5l1.6,1l3.2,2l1.5,1l1.7,1.1l3.1,1.9l0.7,0.4l1.4,0.8l0.8,0.5
		l0.7,0.4l0.6,0.4l0.5,0.2l0.7,0.3l0.5,0.2l0.6,0.2l0.6,0.1l0.6,0.1l0.8,0.1l0.9,0l0.8,0l0.5-0.1l1.3-0.3l11.5-2.7l10-2.4l13.1-3.2
		l0,0.3l13-3.1l0,19.7l-0.2,0.1l-0.2,0.1l-0.2,0.1l-1,0.3l-0.7,0.2l-0.7,0.2l-0.7,0.2l-2.6,0.7l-0.4,0.1l-0.2,0.1l-0.2,0.1l-0.2,0.1
		l-0.1,0.1l-0.1,0.1l-0.1,0.1l-0.1,0.2l-0.1,0.2l-1.4,3.7l-0.1,0.2l-0.1,0.2l-0.1,0.2l-0.1,0.2l-0.2,0.2l-0.2,0.2l-0.2,0.2l-0.2,0.2
		l-0.2,0.1l-0.2,0.1l-0.5,0.2l-0.2,0.1l-0.2,0.1l-0.2,0.1l-0.2,0.1l-0.5,0.1l-0.1,0l0,0l0,6.4l6.8,0l0-5l3,0l0,2.5l3.3,0l0,7.6
		l-3.2,0l-9.8,0l-12.9,0l0-5.2l-6.7,0l0,5.2l-19.2,0l-26.2-0.1l0,2l-1.9,0l0-2l-5.7,0l0,0l-0.1,0l-0.1,0l-0.1,0l-0.1,0l-0.1,0.1
		l-0.1,0.1l-0.8,0.6l-1.6,0.6l-3.5,2l-1.1-1.2l-0.2,0.1l-2-2.2l1.8-1.7l-0.2-0.1L508,341.4z"/>
	<path id="Jefferson_Park" class="st0" d="M213.8,187.6l-0.8,0.7l-0.4,0.4l-0.3,0.2l-0.4,0.2l-0.3,0.2l-0.7,0.5l-0.4,0.3l-0.5,0.3
		l-1,0.8l-0.4,0.3l-0.2,0.2l-0.3,0.2l-0.1,0.2l-0.2,0.2l-0.2,0.2l-1,0.9l-0.5,0.5l-0.8,0.7l-0.7,0.5l-0.5,0.3l-0.4,0.2l-0.5,0.2
		l-0.2,0.1l-0.2,0.1l-0.2,0.1l-0.2,0.1l-2.2,1.2l-0.6,0.3l-0.2,0.2l-0.3,0.2l-0.5,0.4l-0.4,0.3l-0.2,0.2L198,199l-0.1,0.2l-0.2,0.5
		l-0.1,0.3l-0.2,0.8l-0.2,1.2l-0.1,0.8l-0.2,2l0,0.5l-0.1,0.8l0,0.8l0,0.8l0,0.4l0,0.5l0,0.8l0,0.6l-0.1,1.5l-0.1,1l-0.1,0.8
		l-0.1,0.4l-0.1,0.5l-0.1,0.3l0,0l-0.3,0.5l-0.3,0.6l-0.5,1.2l-0.1-0.1l-1.4-1.5l-1.6-1.6l-0.4-0.5l-0.8-1.1l-0.6-1.1l-0.4-1
		l-0.3-1.2l0-0.1l-1.8,0l-1.8,0l-2.4,0l0-1.2l-0.1-2.1l-4.3,0l-4.3,0l0,1.3l0,2.1l-4.4,0l0-1.6l0-0.4l0-1.3l0-1.4l-0.1-0.1l0-1.8
		l0-3.4l0-1.9l0.1-0.1l0-1.3l0-1.3l-0.2-0.1l0-1.9l0.1-3.4l0-1.1l0.2-0.1l0-2.2l0-1.7l-0.1-0.1l0-1.5l0-3.4l0-1.5l0.1-0.1l0-0.2
		l0-1.6l2.4,0l2.1,0l1.5,0l1.3,0l1.5,0l2,0l2.3,1.2l3.4,1.3l2.3,0.9l1.9,0.7l2.5,0.9l0.5,0.2l2.5,0.9l0.6-0.1l2.1,0.6l0.7,0.2
		l4.1,1.5l3.9,1.4l0.2,0.1l3.6,1.7l0.8,0.4L213.8,187.6z"/>
	<path id="Northeast_Park_Hill" class="st0" d="M508,104.6l-0.1,2.7l0,3.8l0,5.9l0,0.1l0,0.4l-0.1,1.4l0,0.5l0,0.2l0,0.3l0,0.2
		l0,0.1l0,2.1l0.2,0.1l-0.2,0.2l-0.1,2.2l0,3.6l-0.2,1.1l0,0.2l0,0.3l0,0.4l0.1,0.4l0.2,1.1l0,0.4l0,0.2l0.1,0.4l0,0.4l0,0.3l0,1.6
		l0,2.7l0,1.9l0,5.1l-0.1,2.2l0,0.8l0.2,0.4l0,1.6l0,2l0,3l0.1,5l0,5.1l-6.5,0l-3.2,0l-3.4,0l-3.4,0l-3.2,0l-3.2,0l-1.9,0l-1.2-0.1
		l-3.3,0l-3.2,0l-3.2,0l-3.4,0l-3.4,0l-3.2,0l-3.2,0l-2.3,0l-0.5,0l-0.4,0l-0.4,0l-4.4,0l-4.9,0l-4.9,0l-4.9,0l-6.9,0l-3.6,0l-3.4,0
		l-1.7,0l-1.7,0l-3.4,0l-3.4,0l-3.4,0l-0.6,0l-0.4,0l-2.5,0.1l0-5l0-2l0-3.3l-0.2-0.3l0-3.1l0-3.3l0-3l0-10.3l0,0l0-2.7l-0.1-3.4
		l0-6.9l0-1.4l0-2.6l0-2l0-0.8l0.1-1.5l0-1.4l0.1-0.8l0-0.4l0.1-2.1l0.1-4.2l-0.1-9.6l0-1.9l0-1.4l0-0.6l0-0.6l0.1-0.8l0.1-0.9
		l0.2-0.7l0.1-0.6l0-0.1l0.2-0.7l0.2-0.7l0.2-0.8l0.2-0.6l23.4-0.1l13.1-0.1l-0.1,20.2l13.1-0.1l26-0.1L508,104.6z"/>
	<path id="Elyria_Swansea" class="st0" d="M406.4,84.7l-0.2,0.6l-0.2,0.8l-0.2,0.7l-0.2,0.7l0,0.1l-0.1,0.6l-0.2,0.7l-0.1,0.9
		l-0.1,0.8l0,0.6l0,0.6l0,1.4l0,1.9l0.1,9.6l-0.1,4.2L405,111l0,0.4l-0.1,0.8l0,1.4l-0.1,1.5l0,0.8l0,2l0,2.6l0,1.4l0,6.9l0.1,3.4
		l0,2.7l0,0l-1,0l-1.9,0l-3.5,0l-9.6,0l-1.6,0l-1.6,0l-3.1,0l-1.5,0l-0.2,0l-1.5,0l-1.3,0l-1.5,0l-3.1,0l-1.6,0l-1.5,0l-1.5,0
		l-1.5,0l-8.4,0l-3,0l-3.2,0.1l-14.7,0l-3.4,0l-7-0.1l-3.5,2.6l-6.1,4.7l-1.3-0.9l-1.2-0.9l-2.4-1.9l-2.4-1.9l-1.2-0.9l-1.2-0.9
		l-1.2-0.9l-1.2-0.9l-2.4-1.9l-2.4-1.9l-0.7-0.6l-0.3-0.3l0.2-0.4l0.3-0.6l0-0.1l0.3-0.4l0.5-0.8l0.1-0.3l0.1-0.3l0.1-0.3l0-0.2
		l0-0.1l0-0.3l0-0.5l-0.1-1l0-0.3l0-0.3l-0.1-0.4l-0.2-1l-0.2-0.9l-0.1-0.7l0-0.7l0-0.4l0-0.3l0.3-0.7l0.2-0.6l0.1-0.2l0.1-0.1
		l0.3-0.5l0.1-0.1l0.3-0.4l0.1-0.2l0.2-0.4l0.2-0.4l0.5-0.8l0.3-0.4l0.1-0.2l0.2-0.3l0.3-0.4l0.3-0.4l0.1-0.2l0.1-0.3l0.1-0.3
		l0.2-0.3l0.2-0.3l0.2-0.2l0.2-0.1l0.1-0.1l0.3-0.1l0.2-0.1l0.1-0.2l0.2-0.3l0.1-0.4l0.2-0.5l0.1-0.3l0.1-0.2l0.3-0.4l0.3-0.6
		l0.3-0.6l0.2-0.6l0.2-0.7l0.1-0.2l0.1-0.5l0.1-0.6l0.1-0.6l0-0.5l0-0.4l0-0.5l0-0.6l0-0.4l0-0.4l0-0.3l0-0.2l0-0.6l0.1-0.5l0.1-0.3
		l0.2-0.4l0.2-0.3l0.1-0.3l0.3-0.4l0.3-0.3l0.3-0.3l0.3-0.3l0.4-0.3l0.3-0.3l0.4-0.3l0.2-0.2l0.3-0.2l0.2-0.1l0.8-0.4l0.3-0.2
		l2.6-1.8l1.4-1.1l1.6-1.3l2.6-1.8l0.6-0.4l0.6-0.4l0.4-0.4l0.5-0.3l0.7-0.4l0.6-0.4l0.5-0.3l0.5-0.3l1-0.7l0.2-0.1l23.8,0l2.3-1.8
		l10.9-8.3l15.4,0l26.2,0.1l0,10.1L406.4,84.7z"/>
	<path id="Baker" class="st0" d="M275,266.1l-0.1,2.1l-0.1,2.1l0,4.4l0.1,4.4l-0.1,4.4l0,2.8l0,2.5l0,2.5l0,1.2l0,1.3l0,2.5l0,2.5
		l0,2.5l0,2.4l-0.1,2.6l0,2.6l0,2.5l0,2.4l-0.1,2.6l0.2,5l0.2,5.1l0,1.5l0,2l-0.1,1.4l-0.1,0.4l0,0.2l0,0.5l0,0.5l0,0.3l0.1,0.4
		l0.1,0.2l0,0.5l0,1.9l0,0.4l0.1,9.9l-7.1,0l-0.4,0l-0.3,0l-2.9,0l-1.7,0l-1.4,0l0-0.1l0-0.4l0-0.3l0-0.2l0-0.3l0.1-0.6l0.1-0.5
		l0.1-0.7l0-0.7l0-0.8l0-0.4l0-0.5l-0.1-0.8l-0.1-0.3l-0.1-0.2l-0.1-0.3l-0.1-0.2L261,339l-0.2-0.2l-0.2-0.2l-0.1-0.1l-0.1-0.2
		l-0.3-0.8l-0.3-0.6l-0.5-0.8l-0.2-0.3l-0.3-0.2l-0.5-0.5l-0.7-0.8l-1.2-1.4l-0.6-0.8l-0.9-1.3l-0.2-0.3l-0.2-0.3l-0.5-0.5l-1-1
		l-2.1-1.8l-0.8-0.7l-0.2-0.1l-0.8-0.7l-0.2-0.2l-0.3-0.2l-0.2-0.2l-0.4-0.6l-0.3-0.4l-0.2-0.3l-0.2-0.3l-0.1-0.2l-0.2-0.4l-0.2-0.4
		l-0.1-0.2l-0.3-0.4l-0.1-0.2l-0.1-0.3l-0.1-0.4l-0.1-0.4l-0.2-0.5l-0.2-0.4l-0.2-0.4l-0.9-1.8l-0.4-0.7l-0.2-0.3l-0.1-0.3l-0.1-0.3
		l-0.1-0.3l-0.2-0.7L243,313l-0.3-0.6l-0.3-0.5l-0.6-1l-0.6-1.1l-0.1-0.2l-0.2-0.4l-0.3-1l-0.1-0.5l-0.1-0.4l-0.1-0.2l-0.1-0.2
		l-0.4-0.6l0,0l-0.4-0.6l-0.2-0.4l-0.1-0.3l-0.3-0.7l-0.2-0.5l-0.8-1.9l-0.4-0.8l-0.5-1l-0.6-1.2l-0.2-0.4l-0.4-1.1l-0.3-0.8
		l-0.2-0.3l-0.4-0.6l-0.2-0.3l-0.9-1.1l-0.3-0.4l-0.2-0.3l-0.5-0.4l-0.8-0.7l-0.7-0.6l-0.3-0.2l-1.1-0.7l-1-0.6l-1.3-0.8l-1.3-0.8
		l-1.2-0.7l-0.8-0.5l-1-0.6l-0.4-0.2l-0.3-0.2l-0.3-0.2l-0.3-0.2l-0.2-0.2l-0.3-0.3l-0.2-0.3l-0.5-0.6l-0.3-0.3l-2.6-2.6l-1.2-1.2
		l-0.8-0.8l-1.2-1.2l-0.5-0.4l-0.7-0.5l-0.9-0.5l-0.3-0.1l-0.4-0.1l-0.6-0.2l-1.3-0.3l-3.3-0.7l-0.6-0.2l-0.5-0.2l-0.3-0.1l-0.4-0.2
		l-0.3-0.2l-0.2-0.2l-0.2-0.2l-0.2-0.2l-0.6-0.3l-1.9-1.1l-0.4-0.3l-0.8-0.5l-0.5-0.3l-1.7-0.9l-0.3-0.2l-0.3-0.3l-0.3-0.4l-0.4-0.5
		l0,0l-0.1-0.2l-0.2-0.3l-0.1-0.3l0-0.2l0-0.4l0-0.4l0-0.3l0.1-1.1l0.3,0l2.4-0.2l1.4-0.1l1.8-0.1l0.6,0l1.1,0l0.1,0l1.5-0.1
		l1.3-0.1l0.9,0l0.9,0l1.7,0l2.9,0l0.6,0l0.1,0l1.1-0.1l0.1,0l1.3-0.1l0.7,0l0.7,0l0.8,0l1.2,0.1l0.8,0l0.2,0l1.8,0.1l4.9,0l10.3,0
		l2,0.1l1.9,0l0.3,0l2.1,0l1.4,0l0.1,0l1.4,0l1.6,0l1.6,0l1.6,0l1.7,0l1.6,0l1.7,0l1.6,0l1.7,0l1.8,0l1.7,0l1.8,0l1.7,0l3,0l0.9,0
		l1.4,0L275,266.1z"/>
	<path id="Clayton" class="st0" d="M405.1,165.3l-0.4,0l-1.2,0.1l-0.6,0l-0.9,0.1l-1.1,0.2l-0.7,0.1l-0.6,0l-0.5,0l-0.6,0l-0.6,0
		l-0.5,0l-0.6,0l-0.6-0.1l-0.7-0.1l-0.7-0.1l-0.9-0.1l-0.8-0.1l-0.5,0l-0.7,0l-1.7,0l-1,0l-2.3,0l-1.1,0l-0.3,0l-3.1,0l-0.6,0
		l-2.2,0l-0.6,0l-0.4,0l-3.1,0l-3.4,0l-3.4,0l-3.4,0l-0.4,0l-1.3,0l-1.7,0l-1.7,0l-1.7,0l-1.7,0l-1.7,0l-1.7,0l-1.6,0l0-3.5l0-3.4
		l0-3.5l0-3.4l0-3.3l0-3.1l0-5.2l0-0.7l0-1.4l0.2-0.8l0.7-1.9l3.2-0.1l3,0l8.4,0l1.5,0l1.5,0l1.5,0l1.6,0l3.1,0l1.5,0l1.3,0l1.5,0
		l0.2,0l1.5,0l3.1,0l1.6,0l1.6,0l9.6,0l3.5,0l1.9,0l1,0l0,10.3l0,3l0,3.3l0,3.1l0.2,0.3l0,3.3l0,2L405.1,165.3z"/>
	<path id="Skyland" class="st0" d="M405,195.6l-4.9-0.3l-2.3,0l-6.9,0l-9.2,0l-2.2,0l-12.9,0l-1.2,0l-1,0.1l-3.8,0.4l-1.7,0.2
		l-1.7,0.2l-1.4,0.2l-1.1,0.1l-1.2,0.1l-1.5,0l0-3.5l0-3.5l0-3.5l0-3.5l0-3.5l0-3.5l0-3.5l0-3.5l0-3.5l1.6,0l1.7,0l1.7,0l1.7,0
		l1.7,0l1.7,0l1.7,0l1.3,0l0.4,0l3.4,0l3.4,0l3.4,0l3.1,0l0.4,0l0.6,0l2.2,0l0.6,0l3.1,0l0.3,0l1.1,0l2.3,0l1,0l1.7,0l0.7,0l0.5,0
		l0.8,0.1l0.9,0.1l0.7,0.1l0.7,0.1l0.6,0.1l0.6,0l0.5,0l0.6,0l0.6,0l0.5,0l0.6,0l0.7-0.1l1.1-0.2l0.9-0.1l0.6,0l1.2-0.1l0.4,0l0,0.4
		l0,4.5l0,5.2l0,5l0,1.5l0,2.7l0,1l0,0.7l0,4.4L405,195.6z"/>
	<path id="Lincoln_Park" class="st0" d="M244.1,225.7l0.4,0.7l0.1,0.2l0.1,0.1l0.1,0.1l0.1,0.2l0.2,0.2l0.1,0.1l0.1,0.1l0.1,0.2
		l0.1,0.2l0.1,0.1l0.1,0.2l0.1,0.2l0.1,0.2l0.1,0.1l0.2,0.2l0.1,0.2l0.1,0.2l0.1,0.2l0.1,0.2l0.1,0.2l0.1,0.2l0.1,0.2l0.1,0.1
		l0.2,0.2l0.5,0.5l0.2,0.4l0.3,0.4l0.1,0.1l0.2,0.2l0.3,0.4l0.5,0.7l0.5,0.8l0.3,0.3l0.3,0.4l1,1.4l0.2,0.2l0.2,0.2l0.2,0.4l0.2,0.3
		l0.2,0.2l0.3,0.3l0.3,0.4l0.3,0.4l0.3,0.5l0.4,0.5l0.2,0.3l0.3,0.3l0.2,0.3l0.2,0.3l0.5,0.6l0.2,0.2l0.1,0.2l0.1,0.2l0.3,0.3
		l0.2,0.3l0.3,0.3l0.2,0.3l0.2,0.3l0.1,0.2l0.4,0.6l0.2,0.2l0.4,0.5l0.2,0.2l0.1,0.2l0.2,0.3l0.3,0.4l0.2,0.3l0,0l0.3,0.5l0.3,0.3
		l0.2,0.4l0.3,0.4l0.5,0.6l0.2,0.3l0.3,0.5l0.4,0.5l0.3,0.4l0.2,0.3l0.1,0.2l0.2,0.3l0.2,0.4l0.2,0.3l0.1,0.2l0.2,0.3l0.3,0.4
		l0.3,0.3l0.4,0.5l0.2,0.3l0.2,0.3l0.4,0.4l0.2,0.3l0.3,0.4l0.2,0.3l0.3,0.3l0.2,0.3l0.2,0.3l0.2,0.3l0.2,0.2l0.1,0.2l0.5,0.6
		l0.1,0.1l0.2,0.2l0.2,0.2l0.1,0.1l0.2,0.2l0.2,0.3l0.2,0.2l0.3,0.2l0.2,0.1l0.1,0.1l0.1,0.1l0.2,0.1l0.3,0.2l0.3,0.2l0.5,0.4
		l0.3,0.3l0.2,0.1l0.3,0.1l0.2,0l0.1,0.1l0.4,0.3l0.6,0.4l0.7,0.4l0.8,0.4l0.7,0.4l0.3,0.2l0,0.8l0,0.1l0,2.7l-2.6,0l-1.4,0l-0.9,0
		l-3,0l-1.7,0l-1.8,0l-1.7,0l-1.8,0l-1.7,0l-1.6,0l-1.7,0l-1.6,0l-1.7,0l-1.6,0l-1.6,0l-1.6,0l-1.4,0l-0.1,0l-1.4,0l-2.1,0l-0.3,0
		l-1.9,0l-2-0.1l-10.3,0l-4.9,0l-1.8-0.1l-0.2,0l-0.8,0l-1.2-0.1l-0.8,0l-0.7,0l-0.7,0l-1.3,0.1l-0.1,0l-1.1,0.1l-0.1,0l-0.6,0
		l-2.9,0l-1.7,0l-0.9,0l-0.9,0l-1.3,0.1l-1.5,0.1l-0.1,0l-1.1,0l-0.6,0l-1.8,0.1l-1.4,0.1l-2.4,0.2l-0.3,0l0.1-0.5l0,0l0.1-0.5
		l0-0.3l0.1-0.8l0,0l0-0.8l0.1-0.8l0-0.4l0-0.5l0-0.5l-0.1-0.4l0-0.1l-0.1-0.4l-0.3-0.7l-0.3-0.6l-0.2-0.3l-0.3-0.4l-0.9-1l-0.4-0.5
		l-0.4-0.5l-0.2-0.3l-0.3-0.6l-0.2-0.4l-0.1-0.3l-0.1-0.2l0-0.2l0-2.3l0-1.5l-0.1-2.5l0-2.4l0-1.1l0-1.4l0-2.6l-0.1-1.4l-0.2-0.9
		l-0.2-0.8l-0.2-0.4l-0.6-1.2l-0.7-1.5l-0.5-1.1l-0.3-0.8l-0.1-0.3l-0.1-0.5l0-0.3l0-0.5l0-0.6l0.1-0.6l0.1-0.6l0.1-0.2l0.1-0.3
		l0.1-0.3l0.1-0.2l0.8-2.1l0.2-0.7l0,0l0.2-0.6l5.7,0.1l2.1,0.1l10.3,0.2l4.2,0.1l8.1,0.2l1.5,0.1l1.8,0.1l1.3,0.1l1,0.1l0.8,0
		l1.6,0l2,0l3,0l0.4,0l4-0.1l0.1,0l0.2,0l0.2,0l2.5,0l0.4,0L244.1,225.7z"/>
	<path id="Whittier" class="st0" d="M351.8,196.5l-1.7,0l-1.7,0l-1.7,0l-1.7,0l-1.7,0l-1.7,0l-1.8,0l-1.7,0l-1.7,0l-1.7,0l-1.7,0
		h-1.7l-1.7,0l-1.7,0l-1.7,0h-1.7l-1.7,0l-1.7,0l-1.7,0l-1.7,0l-1.7,0l-1.7,0l0-3.5l0-3.5l0-3.7l0-1.1l0-0.5l0-0.6l0-1.2l0-1.8
		l0-1.7l0-2.1l0-1.4l0.1-3.5l0-2.5l0-0.9l0-1.1l0-1.7l0-0.7l1.3,0.1l0.5,0l1.7,0l1.7,0l1.7,0l6.8,0l1.7,0l1.7,0l1.7,0l1.7,0l1.7,0
		l1.7,0l1.7,0l1.8,0l1.7,0l1.7,0l1.7,0l1.7,0l1.7,0l1.7,0l0,3.5l0,3.5l0,3.5l0,3.5l0,3.5l0,3.5l0,3.5l0,3.5L351.8,196.5z"/>
	<path id="Cole" class="st0" d="M351.9,165.2l-1.7,0l-1.7,0l-1.7,0l-1.7,0l-1.7,0l-1.7,0l-1.8,0l-1.7,0l-1.7,0l-1.7,0l-1.7,0l-1.7,0
		l-1.7,0l-1.7,0l-6.8,0l-1.7,0l-1.7,0l-1.7,0l-0.5,0l-1.3-0.1l0-1l0-2.3l0-1.5l0-1.1l0-0.8l0-1.8l0-1.7l0-0.2l0-0.6l-0.1-1.2l0-1.3
		l0-0.6l0-2l0-0.7l0-2.8l4-3.1l6.1-4.7l3.5-2.6l7,0.1l3.4,0l14.7,0l-0.7,1.9l-0.2,0.8l0,1.4l0,0.7l0,5.2l0,3.1l0,3.3l0,3.4l0,3.5
		l0,3.4L351.9,165.2z"/>
	<path id="Westwood" class="st0" d="M129.9,306l3.4,0l3.3,0l1.6,0l1.8,0l1.6,0l1.7,0l1.7,0l1.7,0l3.4,0l1.7,0l1.7,0l1.7,0l1.9,0
		l1.5,0l1.7,0l1.7,0l1.7,0l1.7,0l1.7,0l3.4,0l0,4.9l0,2.4l0,2.4l0,0.4l0,2.2l0,2.9l0,2.2l0,2.7l0,2.3l0,2.9l0,2.1l0,2.6v3.3l0,1.8
		l0,2.8l0.1,2.3l-3.7,0l-2.9,0l-2.9,0l-3.5,0l-3.5,0l-2.2,0l-0.7,0l-1.9-0.1l-1.1-0.1l-1.1-0.2l-1.3-0.3l-1.2-0.3l-0.6-0.2l-0.4-0.1
		l-0.5-0.1l-0.3,0l-0.3,0l-0.3,0l-0.3,0l-0.4,0.1l-2.3,0.9l-0.9,0.3l-3.2,0l-3.3,0l-3.3,0l-3.2,0l-3.3,0l-3,0l-0.3,0.1l-3.2,0
		l-3.2,0l-3.2,0l-3.3,0l-3.2,0l-3.2,0l-3.2,0l-3.7,0h0v-0.1l-0.1-20.2l0-20.2l0,0l3.3,0l2.8,0l0.5,0l2.3,0l4.2,0.1l4.1,0l2.6,0l3,0
		l4.9,0l3.3,0l3.3,0L129.9,306z"/>
	<path id="Sunnyside" class="st0" d="M245.2,108.1l-0.1,11.7l0,5l0,2.9l0,3.5l-0.1,3.5l0,3.5l0,3.4l0,3.1l0,0.2l-0.5,0l-5.7-0.1
		l-0.4,0.1l-1.6,0l-1.6,0l-1.7,0l-1.7,0l-1.6,0l-0.2,0l-1.5,0l-1.6,0l-1.6,0l-1.6,0l-0.5,0l-1.1,0l-1.6,0h-1.1l-1.7,0l-4.4,0l-1.7,0
		l-1.1,0l-1.6,0l-1.7,0l-1.1,0l-0.5,0l-1.2,0l-0.5,0l-1.1,0l-0.4,0l-0.7,0l-0.9,0l-0.8,0l-0.9,0l-0.7,0l-0.9,0l-1.6,0l-4.3,0l-1.6,0
		l-1.1,0l-1.6,0l-4.3,0l-1.7,0l-2.6,0l-2.3,0l-2,0l-1.6,0l-1.1,0l-1.8,0l0-1.3l0-1.3l-0.2-1.7l0-0.8l0-2.5l0-1.1l0.2-1.4l-0.2-1.4
		l0-3.5l0-2.9l0.2-2.4l-0.1-3.4l0-3.3l0-2.2l0.2-1.2l-0.2-1.9l0-3.3l0-1.2l0.1-1.2l0-2.6l0-1.1l0-0.2l0.3,0l0.2,0l1.7,0.1l1.3,0.1
		l0.9,0.1l0.8,0.1l3.1,0.5l1,0.2l3,0.6l1.2,0.1l0.6,0.1l0.9,0.1l0.8,0l0.6,0l2.7,0l5.7,0l3.9,0.1l10.4,0.2l1.6,0l1.7,0.1l0.4,0
		l2.4,0.2l1.4,0.2l1.9,0.2l1.8,0.2l1,0l0.2,0l1,0l0.2,0l0.7,0l0.8-0.1l1.8-0.3l2.2-0.3l2.1-0.3l0.9-0.1l0.6,0l0.3,0l1.2,0.1l1,0.1
		l1.8,0.3l3.1,0.9l2.6,0.7l2.7,0.7L245.2,108.1z"/>
</g>
</svg>
